<?xml version="1.0" encoding="UTF-8"?>
<svg id="Layer_2" data-name="Layer 2" xmlns="http://www.w3.org/2000/svg" viewBox="0 0 118.79 183">
  <defs>
    <style>
      .cls-1 {
        stroke: #9d9d9d;
        stroke-width: 4px;
      }

      .cls-1, .cls-2 {
        fill: none;
        stroke-linecap: round;
        stroke-linejoin: round;
      }

      .cls-2 {
        stroke: #3cc5cf;
        stroke-width: 9px;
      }
    </style>
  </defs>
  <g id="Layer_1-2" data-name="Layer 1">
    <g>
      <path class="cls-1" d="m49.58,128.63c-1.73,4.04-3.39,7.88-5.02,11.72-4.23,9.98-8.47,19.96-12.68,29.95-1.65,3.91-4.6,6.24-8.73,6.64-3.64.36-6.73-1.16-8.94-4.16-2.21-3-2.45-6.26-1.32-9.79,5.14-16.12,10.2-32.26,15.34-48.37.59-1.86.92-3.56.16-5.49-1.23-3.12-.67-6.36-.22-9.57,1.17-8.36,2.3-16.74,3.46-25.1.68-4.96,1.14-9.97,2.12-14.88,1.81-9.02,8.81-15.16,18.1-15.98,7.27-.65,15.6,3.28,19.62,12.32,1.26,2.82,2.54,5.66,4.14,8.3,3.11,5.13,7.94,7.63,13.82,8.06,2.67.2,5.37.04,8.06.07.78,0,.93-.28.91-1.05-.15-4.76-.27-9.53-.3-14.29-.01-2.18,1.43-3.59,3.45-3.63,1.72-.04,3.25,1.45,3.33,3.47.18,4.3.26,8.61.38,12.91.01.41,0,.81,0,1.14,1.41.38,2.78.58,4,1.12,3.39,1.48,5.04,4.23,5.04,7.86,0,3.59-1.89,6.08-5.05,7.63-.63.31-1.3.65-1.98.72-1.43.15-1.59.91-1.55,2.18.46,15.78.86,31.56,1.26,47.35.29,11.47.56,22.95.84,34.42.01.5,0,1-.02,1.49-.09,1.91-1.31,3.12-3.22,3.21-1.72.08-3.35-1.27-3.47-3.04-.17-2.44-.25-4.88-.31-7.33-.11-4.81-.15-9.62-.28-14.42-.32-12.76-.68-25.52-1.01-38.28-.2-7.62-.37-15.24-.54-22.86-.02-.71-.12-1.2-1.02-1.16-11.62.43-22.66-2.36-33.52-6.12-.42-.15-.85-.26-1.46-.45-.26,1.7-.51,3.28-.74,4.86-.58,4.1-1.12,8.21-1.72,12.3-.19,1.27.16,2.12,1.2,2.96,5.64,4.56,11.18,9.24,16.82,13.8,1.36,1.09,1.79,2.4,1.8,4,.01,8.54.02,17.08.03,25.62,0,5.64.04,11.27-.02,16.91-.02,1.69-.17,3.39-.44,5.06-.91,5.55-5.78,9.71-11.36,9.79-5.53.08-10.63-4-11.71-9.43-.24-1.21-.33-2.47-.33-3.7-.03-10.2-.03-20.39,0-30.59,0-.89-.27-1.38-1.03-1.89-1.96-1.3-3.83-2.74-5.9-4.26Z"/>
      <path class="cls-2" d="m49.58,128.63c-1.73,4.04-3.39,7.88-5.02,11.72-4.23,9.98-8.47,19.96-12.68,29.95-1.65,3.91-4.6,6.24-8.73,6.64-3.64.36-6.73-1.16-8.94-4.16-2.21-3-2.45-6.26-1.32-9.79,5.14-16.12,10.2-32.26,15.34-48.37.59-1.86.92-3.56.16-5.49-1.23-3.12-.67-6.36-.22-9.57,1.17-8.36,2.3-16.74,3.46-25.1.68-4.96,1.14-9.97,2.12-14.88,1.81-9.02,8.81-15.16,18.1-15.98,7.27-.65,15.6,3.28,19.62,12.32,1.26,2.82,2.54,5.66,4.14,8.3,3.11,5.13,7.94,7.63,13.82,8.06,2.67.2,5.37.04,8.06.07.78,0,.93-.28.91-1.05-.15-4.76-.27-9.53-.3-14.29-.01-2.18,1.43-3.59,3.45-3.63,1.72-.04,3.25,1.45,3.33,3.47.18,4.3.26,8.61.38,12.91.01.41,0,.81,0,1.14,1.41.38,2.78.58,4,1.12,3.39,1.48,5.04,4.23,5.04,7.86,0,3.59-1.89,6.08-5.05,7.63-.63.31-1.3.65-1.98.72-1.43.15-1.59.91-1.55,2.18.46,15.78.86,31.56,1.26,47.35.29,11.47.56,22.95.84,34.42.01.5,0,1-.02,1.49-.09,1.91-1.31,3.12-3.22,3.21-1.72.08-3.35-1.27-3.47-3.04-.17-2.44-.25-4.88-.31-7.33-.11-4.81-.15-9.62-.28-14.42-.32-12.76-.68-25.52-1.01-38.28-.2-7.62-.37-15.24-.54-22.86-.02-.71-.12-1.2-1.02-1.16-11.62.43-22.66-2.36-33.52-6.12-.42-.15-.85-.26-1.46-.45-.26,1.7-.51,3.28-.74,4.86-.58,4.1-1.12,8.21-1.72,12.3-.19,1.27.16,2.12,1.2,2.96,5.64,4.56,11.18,9.24,16.82,13.8,1.36,1.09,1.79,2.4,1.8,4,.01,8.54.02,17.08.03,25.62,0,5.64.04,11.27-.02,16.91-.02,1.69-.17,3.39-.44,5.06-.91,5.55-5.78,9.71-11.36,9.79-5.53.08-10.63-4-11.71-9.43-.24-1.21-.33-2.47-.33-3.7-.03-10.2-.03-20.39,0-30.59,0-.89-.27-1.38-1.03-1.89-1.96-1.3-3.83-2.74-5.9-4.26Z"/>
    </g>
    <g>
      <path class="cls-1" d="m56.85,42.05c-10.31-.05-18.8-8.62-18.73-18.91.07-10.38,8.66-18.7,19.26-18.64,9.84.05,18.31,8.8,18.28,18.87-.03,10.26-8.56,18.73-18.81,18.69Z"/>
      <path class="cls-2" d="m56.85,42.05c-10.31-.05-18.8-8.62-18.73-18.91.07-10.38,8.66-18.7,19.26-18.64,9.84.05,18.31,8.8,18.28,18.87-.03,10.26-8.56,18.73-18.81,18.69Z"/>
    </g>
    <g>
      <path class="cls-1" d="m28.41,45.87c-.18.34-.27.62-.44.83-3.61,4.37-5.18,9.52-5.88,15.04-.89,7.02-1.9,14.03-2.84,21.04-.79,5.91-1.61,11.81-2.31,17.73-.15,1.28-.65,1.37-1.67,1.14-7.04-1.58-11.86-8.77-10.55-15.88,1.77-9.56,3.6-19.1,5.4-28.66,1.64-8.71,9.6-13.67,18.3-11.24Z"/>
      <path class="cls-2" d="m28.41,45.87c-.18.34-.27.62-.44.83-3.61,4.37-5.18,9.52-5.88,15.04-.89,7.02-1.9,14.03-2.84,21.04-.79,5.91-1.61,11.81-2.31,17.73-.15,1.28-.65,1.37-1.67,1.14-7.04-1.58-11.86-8.77-10.55-15.88,1.77-9.56,3.6-19.1,5.4-28.66,1.64-8.71,9.6-13.67,18.3-11.24Z"/>
    </g>
  </g>
</svg>