<?xml version="1.0" encoding="UTF-8"?>
<!DOCTYPE svg PUBLIC "-//W3C//DTD SVG 1.1//EN" "http://www.w3.org/Graphics/SVG/1.1/DTD/svg11.dtd">
<svg xmlns="http://www.w3.org/2000/svg" version="1.1" width="1024px" height="526px" style="shape-rendering:geometricPrecision; text-rendering:geometricPrecision; image-rendering:optimizeQuality; fill-rule:evenodd; clip-rule:evenodd" xmlns:xlink="http://www.w3.org/1999/xlink">
<g><path style="opacity:0.597" fill="#0e0905" d="M 110.5,21.5 C 112.122,24.4549 114.122,27.1215 116.5,29.5C 117.969,31.1053 117.635,31.6053 115.5,31C 108.885,21.3779 100.219,14.3779 89.5,10C 86.5,9.33333 83.5,9.33333 80.5,10C 66.5728,14.3773 54.0728,21.2106 43,30.5C 40.2097,37.907 38.7097,45.5736 38.5,53.5C 37.7344,58.3634 37.0678,63.3634 36.5,68.5C 36.5,69.8333 36.5,71.1667 36.5,72.5C 35.801,75.5729 34.801,78.5729 33.5,81.5C 33.8333,81.8333 34.1667,82.1667 34.5,82.5C 36.0754,81.5435 37.742,80.8769 39.5,80.5C 39.7856,82.9327 40.4523,82.9327 41.5,80.5C 42.4822,79.8592 43.4822,79.1925 44.5,78.5C 45.2309,80.4012 45.2309,82.4012 44.5,84.5C 43.0224,84.2077 41.3558,84.2077 39.5,84.5C 38.5481,86.0453 38.2148,87.712 38.5,89.5C 38.3284,90.4916 38.6618,91.1583 39.5,91.5C 40.176,95.1867 41.676,98.5201 44,101.5C 45.7342,103.451 47.9009,104.451 50.5,104.5C 50.3505,103.448 50.5172,102.448 51,101.5C 55.7415,113.076 63.9082,121.076 75.5,125.5C 76.3132,126.653 77.3132,126.653 78.5,125.5C 80.5044,127.752 83.0044,129.086 86,129.5C 89.5624,129.099 91.0624,127.099 90.5,123.5C 93.1667,123.5 95.8333,123.5 98.5,123.5C 98.5,124.833 98.5,126.167 98.5,127.5C 101.279,127.721 103.946,127.388 106.5,126.5C 107.338,126.842 107.672,127.508 107.5,128.5C 106.221,131.112 104.555,133.445 102.5,135.5C 102.666,142.175 102.5,148.842 102,155.5C 100.852,160.32 97.8516,162.32 93,161.5C 89.2423,161.858 85.909,160.858 83,158.5C 78.4581,149.911 73.2914,141.744 67.5,134C 64.4928,130.596 61.8261,130.763 59.5,134.5C 50.0711,138.714 40.7377,143.214 31.5,148C 30.7614,151.073 28.9281,153.24 26,154.5C 21.6508,172.897 17.1508,191.23 12.5,209.5C 11.6575,211.823 10.6575,214.157 9.5,216.5C 9.83333,217.167 10.1667,217.833 10.5,218.5C 15.8559,214.66 21.8559,212.993 28.5,213.5C 31.1667,213.667 33.8333,213.833 36.5,214C 38.9398,215.303 41.4398,216.47 44,217.5C 46.5899,215.995 47.0899,213.995 45.5,211.5C 47.7977,205.384 49.131,199.051 49.5,192.5C 50.3247,188.353 50.8247,184.019 51,179.5C 51.4993,184.489 51.6659,189.489 51.5,194.5C 50.8696,200.484 49.5363,206.317 47.5,212C 47.8333,213 48.1667,214 48.5,215C 46.1578,217.853 44.4912,221.019 43.5,224.5C 49.1613,224.907 54.828,225.24 60.5,225.5C 58.3926,226.468 56.0593,226.802 53.5,226.5C 44.6987,226.252 36.0321,226.752 27.5,228C 31.7604,225.433 36.4271,224.1 41.5,224C 42.3802,222.644 42.7135,221.144 42.5,219.5C 38.4902,215.773 33.6569,214.107 28,214.5C 22.0665,214.367 16.7332,216.034 12,219.5C 9.75652,226.326 9.08986,233.326 10,240.5C 12.2023,245.563 14.369,250.563 16.5,255.5C 20.9063,254.796 25.2397,253.796 29.5,252.5C 31.11,255.203 32.11,258.203 32.5,261.5C 32.8102,268.199 33.4769,274.865 34.5,281.5C 37.5816,280.365 40.5816,279.365 43.5,278.5C 49.1764,278.334 54.8431,278.501 60.5,279C 64.4068,281.121 68.4068,282.955 72.5,284.5C 71.656,286.759 69.9893,287.759 67.5,287.5C 67.853,289.635 67.0197,290.968 65,291.5C 61.5082,290.064 58.0082,289.064 54.5,288.5C 59.2406,288.085 63.9072,287.251 68.5,286C 66.8043,284.824 65.1376,283.657 63.5,282.5C 60.4003,280.206 56.9003,279.206 53,279.5C 45.7182,280.42 38.5516,281.753 31.5,283.5C 29.326,283.75 27.6594,284.75 26.5,286.5C 22.4883,288.007 20.1549,290.84 19.5,295C 19.9589,299.172 20.4589,303.338 21,307.5C 23.0771,309.076 24.5771,311.076 25.5,313.5C 27.2914,314.17 28.9581,314.837 30.5,315.5C 31.6788,322.239 33.1788,328.906 35,335.5C 36.4307,333.636 37.5974,331.636 38.5,329.5C 39.3382,329.842 39.6716,330.508 39.5,331.5C 37.8521,335.114 36.5187,338.781 35.5,342.5C 36.1667,343.167 36.8333,343.833 37.5,344.5C 38.0237,358.163 38.5237,371.829 39,385.5C 40.3297,386.582 41.8297,387.249 43.5,387.5C 55.757,391.546 67.9236,391.212 80,386.5C 80.2494,383.823 81.2494,381.49 83,379.5C 84.4266,370.514 85.7599,361.514 87,352.5C 93.0899,343.83 96.5899,334.163 97.5,323.5C 98.2811,324.729 98.7811,326.062 99,327.5C 101.487,325.191 103.487,322.524 105,319.5C 105.195,320.819 105.028,322.153 104.5,323.5C 102.584,326.598 100.417,329.598 98,332.5C 97.3033,340.316 94.6366,347.316 90,353.5C 88.4722,364.675 86.3055,375.675 83.5,386.5C 92.4596,387.415 101.46,387.748 110.5,387.5C 112.415,387.216 114.081,387.549 115.5,388.5C 105.539,389.424 95.5393,389.758 85.5,389.5C 85.6653,393.182 85.4986,396.848 85,400.5C 82.6278,404.905 81.1278,409.572 80.5,414.5C 79.8333,415.167 79.1667,415.833 78.5,416.5C 77.5758,411.393 76.2424,406.393 74.5,401.5C 74.5,398.5 74.5,395.5 74.5,392.5C 72.1667,392.5 69.8333,392.5 67.5,392.5C 60.4707,392.623 53.4707,392.29 46.5,391.5C 46.5,395.167 46.5,398.833 46.5,402.5C 44.6621,409.194 43.6621,416.027 43.5,423C 44.8018,437.279 46.8018,451.446 49.5,465.5C 49.3398,467.199 49.5065,468.866 50,470.5C 51.2917,469.209 52.4583,469.209 53.5,470.5C 53.9175,471.222 54.5842,471.722 55.5,472C 54.4477,473.716 55.1144,474.716 57.5,475C 53.5,476.333 53.5,477.667 57.5,479C 56.552,479.483 55.552,479.649 54.5,479.5C 54.3601,481.124 55.0267,482.29 56.5,483C 53.6253,483.895 53.2919,484.728 55.5,485.5C 56.6473,485.182 57.4806,484.516 58,483.5C 58.4643,484.094 58.631,484.761 58.5,485.5C 58.5106,487.017 59.1772,488.184 60.5,489C 59.552,489.483 58.552,489.649 57.5,489.5C 57.38,488.414 56.7133,487.747 55.5,487.5C 53.4311,487.824 53.0977,488.658 54.5,490C 53,490.833 51.8333,492 51,493.5C 50.4054,492.101 50.5721,490.768 51.5,489.5C 50.9747,488.808 50.3081,488.308 49.5,488C 52.028,486.983 52.028,485.816 49.5,484.5C 53.3354,483.004 53.3354,482.004 49.5,481.5C 49.3287,478.203 49.9954,477.869 51.5,480.5C 54.0443,479.265 54.0443,478.099 51.5,477C 53.2826,475.933 53.7826,474.433 53,472.5C 52.2825,471.549 51.4491,471.383 50.5,472C 46.8857,473.644 46.2191,475.811 48.5,478.5C 47.4834,485.184 45.4834,491.851 42.5,498.5C 38.5081,500.267 37.1748,503.101 38.5,507C 43.6947,505.75 49.0281,505.417 54.5,506C 57.1735,507.704 60.0068,508.871 63,509.5C 66.2634,510.068 67.7634,508.734 67.5,505.5C 69.8393,507.336 72.5059,508.67 75.5,509.5C 79.3448,507.704 83.3448,506.87 87.5,507C 89.7541,509.444 92.0875,511.611 94.5,513.5C 100.785,514.484 106.952,514.484 113,513.5C 118.187,511.489 123.021,508.823 127.5,505.5C 129.026,502.346 129.693,499.013 129.5,495.5C 127.833,495.5 126.167,495.5 124.5,495.5C 123.212,500.627 120.212,504.461 115.5,507C 109.078,507.308 102.745,507.474 96.5,507.5C 95.4222,504.792 93.4222,503.292 90.5,503C 86.4763,502.391 82.4763,502.558 78.5,503.5C 77.5,503.333 76.5,503.167 75.5,503C 74.2617,502.31 74.2617,501.81 75.5,501.5C 78.142,501.512 79.4754,500.179 79.5,497.5C 79.4346,497.062 79.6012,496.728 80,496.5C 83.1583,499.025 85.9917,498.525 88.5,495C 88.0426,494.586 87.7093,494.086 87.5,493.5C 88.723,492.386 90.0563,492.219 91.5,493C 89.2169,497.479 85.5502,499.979 80.5,500.5C 83.5661,500.481 86.8995,500.648 90.5,501C 92.2738,501.97 94.1072,502.804 96,503.5C 100.928,500.616 106.095,498.283 111.5,496.5C 112.562,494.766 112.562,493.099 111.5,491.5C 117.381,492.992 123.381,493.825 129.5,494C 130.373,495.045 131.373,495.878 132.5,496.5C 132.5,497.833 132.5,499.167 132.5,500.5C 131.004,505.658 128.004,509.658 123.5,512.5C 112.967,517.982 101.967,518.815 90.5,515C 89.2182,512.046 87.0516,510.213 84,509.5C 81.8227,511.051 79.3227,512.051 76.5,512.5C 74.7722,512.41 73.1056,512.077 71.5,511.5C 70.0213,513.678 68.688,516.012 67.5,518.5C 59.759,521.981 51.759,522.481 43.5,520C 34.4728,515.91 31.9728,509.41 36,500.5C 39.0976,498.072 41.431,495.072 43,491.5C 43.8346,484.367 45.0013,477.367 46.5,470.5C 43.3776,454.977 41.3776,439.31 40.5,423.5C 41.8311,412.851 42.8311,402.184 43.5,391.5C 39.0134,391.18 36.1801,388.847 35,384.5C 35.4285,376.857 35.4285,369.191 35,361.5C 33.2772,358.228 32.7772,354.894 33.5,351.5C 31.8129,339.75 29.6462,328.084 27,316.5C 21.9811,313.146 17.9811,308.813 15,303.5C 14.3333,299.833 14.3333,296.167 15,292.5C 19.6667,288.5 24.3333,284.5 29,280.5C 29.0479,272.115 29.2145,263.782 29.5,255.5C 29.3333,255.167 29.1667,254.833 29,254.5C 25.4697,255.679 21.9697,257.012 18.5,258.5C 16.7419,257.872 15.2419,256.872 14,255.5C 7.61666,245.693 5.78333,235.026 8.5,223.5C 8.51883,220.812 7.85216,218.312 6.5,216C 13.5518,195.511 19.3852,174.677 24,153.5C 26.6353,151.539 28.4686,149.039 29.5,146C 40.0215,140.907 50.3548,135.573 60.5,130C 62.8462,130.792 65.1795,130.625 67.5,129.5C 67.6567,128.127 67.49,126.793 67,125.5C 60.3078,121.641 55.1412,116.308 51.5,109.5C 44.1325,106.966 39.2992,101.966 37,94.5C 36.8198,91.0445 36.1532,87.7111 35,84.5C 33.4157,85.8613 31.5824,86.528 29.5,86.5C 29.2639,83.7743 30.0972,81.441 32,79.5C 32.8731,65.7372 34.5398,52.0706 37,38.5C 37.9032,34.1945 39.7365,30.3612 42.5,27C 55.1208,17.1072 69.2875,10.2739 85,6.5C 95.6179,8.05343 104.118,13.0534 110.5,21.5 Z"/></g>
<g><path style="opacity:1" fill="#35281f" d="M 116.5,29.5 C 117.822,29.33 118.989,29.6634 120,30.5C 120.736,45.1601 124.903,58.6601 132.5,71C 132.285,72.9078 131.285,74.0744 129.5,74.5C 127.586,77.6843 126.92,81.351 127.5,85.5C 126.483,89.8672 124.65,93.8672 122,97.5C 120.374,109.415 115.541,119.748 107.5,128.5C 107.672,127.508 107.338,126.842 106.5,126.5C 110.698,121.811 114.198,116.478 117,110.5C 119.008,101.761 122.008,93.4281 126,85.5C 126.805,81.7172 126.638,78.7172 125.5,76.5C 123.715,76.0744 122.715,74.9078 122.5,73C 120.685,65.5384 118.352,58.3717 115.5,51.5C 113.306,53.8348 110.639,55.6681 107.5,57C 105.735,57.6397 104.068,57.4731 102.5,56.5C 103.703,54.3655 105.537,53.0322 108,52.5C 109.752,49.328 111.752,46.328 114,43.5C 114.667,42.5 114.667,41.5 114,40.5C 113.581,41.6721 112.915,42.6721 112,43.5C 111.833,43.1667 111.667,42.8333 111.5,42.5C 112.64,40.9222 113.14,39.2555 113,37.5C 107.5,44.3333 101.333,50.5 94.5,56C 92.2088,58.3397 89.5421,59.6731 86.5,60C 87.1905,58.9326 87.6905,57.7659 88,56.5C 94.8747,51.2927 100.708,45.126 105.5,38C 97.9858,44.1494 90.3191,50.4828 82.5,57C 80.1667,58.5 77.8333,60 75.5,61.5C 74.7025,61.0431 74.3691,60.3764 74.5,59.5C 85.0683,52.4348 94.5683,44.1014 103,34.5C 103.667,33.5 103.667,32.5 103,31.5C 93.3134,40.021 83.4801,48.3543 73.5,56.5C 78.1259,49.9634 83.2925,43.2967 89,36.5C 89.3742,35.5838 89.8742,34.7504 90.5,34C 89.8333,33.3333 89.1667,33.3333 88.5,34C 79.3333,43.1667 70.1667,52.3333 61,61.5C 60.2619,58.788 60.9286,56.4547 63,54.5C 71.1293,44.702 79.6293,35.202 88.5,26C 87.8333,25.3333 87.1667,25.3333 86.5,26C 70.8694,39.9601 57.0361,55.4601 45,72.5C 43.5462,75.0711 42.3795,77.7378 41.5,80.5C 40.4523,82.9327 39.7856,82.9327 39.5,80.5C 39.3893,79.8826 39.056,79.3826 38.5,79C 50.1382,60.4044 63.4715,43.071 78.5,27C 77.8333,26.3333 77.1667,26.3333 76.5,27C 61.6189,41.02 48.2855,56.1867 36.5,72.5C 36.5,71.1667 36.5,69.8333 36.5,68.5C 44.422,58.066 52.5887,47.7327 61,37.5C 68.033,30.4095 75.533,23.9095 83.5,18C 82.0922,17.6848 80.7589,18.0181 79.5,19C 64.4449,29.718 50.9449,42.218 39,56.5C 38.5172,55.552 38.3505,54.552 38.5,53.5C 38.7097,45.5736 40.2097,37.907 43,30.5C 54.0728,21.2106 66.5728,14.3773 80.5,10C 83.5,9.33333 86.5,9.33333 89.5,10C 100.219,14.3779 108.885,21.3779 115.5,31C 117.635,31.6053 117.969,31.1053 116.5,29.5 Z"/></g>
<g><path style="opacity:0.985" fill="#feec01" d="M 132.5,496.5 C 131.373,495.878 130.373,495.045 129.5,494C 123.381,493.825 117.381,492.992 111.5,491.5C 106.869,489.733 102.535,487.4 98.5,484.5C 97.7766,479.827 96.9432,475.16 96,470.5C 94.7011,469.91 93.8678,468.91 93.5,467.5C 95.1727,461.315 97.3394,455.315 100,449.5C 106.191,439.119 111.857,428.452 117,417.5C 118.225,407.893 118.892,398.226 119,388.5C 120.333,387.833 121.667,387.167 123,386.5C 125.098,373.612 124.931,360.779 122.5,348C 122.796,346.112 123.296,344.278 124,342.5C 124.195,326.958 124.361,311.458 124.5,296C 124.333,292.5 124.167,289 124,285.5C 123.283,284.956 122.783,284.289 122.5,283.5C 123.057,269.839 123.557,256.172 124,242.5C 125.125,247.763 127.958,251.763 132.5,254.5C 135.607,258.443 139.607,260.943 144.5,262C 149.677,262.497 153.177,260.33 155,255.5C 156.512,254.743 157.846,253.743 159,252.5C 159.14,249.957 159.806,247.623 161,245.5C 161.667,241.167 161.667,236.833 161,232.5C 159.89,230.963 158.39,230.297 156.5,230.5C 155.071,229.766 154.071,228.599 153.5,227C 155.348,222.292 156.681,217.459 157.5,212.5C 161.702,212.817 165.702,212.483 169.5,211.5C 181.231,209.916 192.897,210.249 204.5,212.5C 209.19,199.23 213.19,185.73 216.5,172C 215.056,169.966 213.056,169.132 210.5,169.5C 203.11,168.148 195.777,168.481 188.5,170.5C 183.203,171.275 177.87,171.608 172.5,171.5C 172.167,171.5 171.833,171.5 171.5,171.5C 171.5,170.833 171.5,170.167 171.5,169.5C 172.791,168.458 172.791,167.292 171.5,166C 169.633,165.289 168.133,165.789 167,167.5C 160.651,187.045 154.817,206.712 149.5,226.5C 148.127,226.657 146.793,226.49 145.5,226C 144.378,223.876 142.878,222.043 141,220.5C 140.505,218.527 140.338,216.527 140.5,214.5C 141.641,211.36 141.808,208.027 141,204.5C 136.945,185.669 131.279,167.336 124,149.5C 120.537,147.524 117.37,145.19 114.5,142.5C 110.997,139.333 106.997,137 102.5,135.5C 104.555,133.445 106.221,131.112 107.5,128.5C 115.541,119.748 120.374,109.415 122,97.5C 124.65,93.8672 126.483,89.8672 127.5,85.5C 128.23,81.9394 128.897,78.2728 129.5,74.5C 131.285,74.0744 132.285,72.9078 132.5,71C 124.903,58.6601 120.736,45.1601 120,30.5C 118.989,29.6634 117.822,29.33 116.5,29.5C 114.122,27.1215 112.122,24.4549 110.5,21.5C 120.805,14.7871 132.138,10.9538 144.5,10C 383.5,9.33333 622.5,9.33333 861.5,10C 896.049,13.88 917.549,32.7133 926,66.5C 927.631,119.809 927.965,173.142 927,226.5C 921.188,275.778 905.855,321.778 881,364.5C 856.503,402.678 823.003,429.845 780.5,446C 745.496,458.001 709.496,465.001 672.5,467C 648.819,467.845 625.153,468.845 601.5,470C 636.385,474.184 671.385,475.517 706.5,474C 753.499,471.92 797.499,459.587 838.5,437C 874.781,414.551 903.447,384.718 924.5,347.5C 925.325,346.614 926.325,346.281 927.5,346.5C 927.948,383.528 927.448,420.528 926,457.5C 917.6,491.408 896.1,510.075 861.5,513.5C 854.5,513 847.5,512.5 840.5,512C 742.521,501.835 644.521,492.002 546.5,482.5C 547.343,478.478 549.01,474.812 551.5,471.5C 544.355,471.479 538.188,474.146 533,479.5C 532.243,464.419 536.409,450.585 545.5,438C 545.167,437.833 544.833,437.667 544.5,437.5C 539.187,441.645 534.02,445.979 529,450.5C 524.999,455.832 521.499,461.498 518.5,467.5C 518.167,466.667 517.833,465.833 517.5,465C 518.703,459.421 519.87,453.921 521,448.5C 514.005,455.181 508.505,462.848 504.5,471.5C 504.167,470.667 503.833,469.833 503.5,469C 508.612,452.339 507.112,451.506 499,466.5C 497.119,470.307 495.953,474.307 495.5,478.5C 493.396,478.799 491.396,478.466 489.5,477.5C 484.951,466.064 479.118,455.397 472,445.5C 472.604,451.133 473.438,456.8 474.5,462.5C 474.299,464.973 473.632,467.306 472.5,469.5C 468.791,459.079 463.291,449.745 456,441.5C 458.261,448.058 460.594,454.724 463,461.5C 464.16,466.792 464.993,472.125 465.5,477.5C 462.813,477.664 460.146,477.497 457.5,477C 451.338,467.421 442.672,461.588 431.5,459.5C 426.59,460.078 422.257,461.911 418.5,465C 427.253,466.026 435.087,469.192 442,474.5C 442.667,475.5 442.667,476.5 442,477.5C 431.238,476.967 420.738,475.633 410.5,473.5C 404.013,473.499 397.846,474.832 392,477.5C 390.244,475.941 390.244,474.274 392,472.5C 394.921,468.908 398.421,466.075 402.5,464C 403.696,463.346 403.696,462.846 402.5,462.5C 393.674,465.176 386.34,470.009 380.5,477C 379.552,477.483 378.552,477.649 377.5,477.5C 376.551,465.629 379.218,454.629 385.5,444.5C 385.333,444.167 385.167,443.833 385,443.5C 381.254,447.353 377.754,451.353 374.5,455.5C 373.081,449.169 371.581,442.836 370,436.5C 368.999,433.827 367.499,431.493 365.5,429.5C 364.457,440.631 362.624,451.631 360,462.5C 359.333,463.167 358.667,463.833 358,464.5C 354.767,455.705 349.767,448.038 343,441.5C 343.54,448.321 344.373,455.154 345.5,462C 344.907,465.151 344.407,468.318 344,471.5C 343.282,472.451 342.449,472.617 341.5,472C 337.046,468.051 334.046,463.217 332.5,457.5C 329.642,463.454 328.309,469.787 328.5,476.5C 326.09,476.079 324.257,474.746 323,472.5C 322.118,469.211 321.452,465.877 321,462.5C 318.61,467.003 316.61,471.669 315,476.5C 313.374,474.083 311.874,471.583 310.5,469C 308.523,467.459 306.523,466.959 304.5,467.5C 308.218,471.803 309.552,476.636 308.5,482C 301.854,482.831 295.187,483.331 288.5,483.5C 288.053,474.912 288.886,466.579 291,458.5C 286.115,461.918 282.948,466.585 281.5,472.5C 280.808,471.975 280.308,471.308 280,470.5C 279.252,464.468 279.419,458.468 280.5,452.5C 280.333,451.833 280.167,451.167 280,450.5C 271.477,458.213 266.643,467.88 265.5,479.5C 263.675,470.926 262.175,462.259 261,453.5C 259.665,449.489 258.331,445.489 257,441.5C 257.175,452.047 255.841,462.38 253,472.5C 252.276,474.959 250.943,475.959 249,475.5C 248.15,467.993 246.816,460.66 245,453.5C 243.243,466.861 240.076,479.861 235.5,492.5C 232.95,492.439 231.45,491.106 231,488.5C 227.216,476.858 228.049,465.525 233.5,454.5C 229.178,454.467 225.178,455.967 221.5,459C 216.914,463.08 212.914,467.58 209.5,472.5C 209.167,469.167 208.833,465.833 208.5,462.5C 208.603,456.405 209.103,450.405 210,444.5C 200.139,455.228 196.972,467.561 200.5,481.5C 200.167,482.5 199.833,483.5 199.5,484.5C 195.347,478.203 191.18,471.87 187,465.5C 188.562,474.644 190.396,483.811 192.5,493C 192.167,493.5 191.833,494 191.5,494.5C 183.358,484.355 173.692,476.022 162.5,469.5C 162.167,469.833 161.833,470.167 161.5,470.5C 167.047,478.76 171.38,487.593 174.5,497C 174.167,497.5 173.833,498 173.5,498.5C 168.716,492.545 163.716,486.711 158.5,481C 155.672,478.752 152.672,476.752 149.5,475C 147.246,473.85 144.913,473.516 142.5,474C 151.682,483.85 158.348,495.183 162.5,508C 160.909,510.796 158.909,511.129 156.5,509C 149.69,502.429 141.69,498.263 132.5,496.5 Z"/></g>
<g><path style="opacity:1" fill="#221a14" d="M 36.5,68.5 C 37.0678,63.3634 37.7344,58.3634 38.5,53.5C 38.3505,54.552 38.5172,55.552 39,56.5C 50.9449,42.218 64.4449,29.718 79.5,19C 80.7589,18.0181 82.0922,17.6848 83.5,18C 75.533,23.9095 68.033,30.4095 61,37.5C 52.5887,47.7327 44.422,58.066 36.5,68.5 Z"/></g>
<g><path style="opacity:1" fill="#211913" d="M 74.5,59.5 C 73.7494,58.4265 72.7494,58.2599 71.5,59C 69.1667,60.8333 66.8333,62.6667 64.5,64.5C 64.6236,65.1067 64.9569,65.44 65.5,65.5C 61.7682,68.4532 57.6015,70.7866 53,72.5C 53.1649,80.5013 53.6649,88.5013 54.5,96.5C 49.6452,98.8887 46.6452,97.5554 45.5,92.5C 44.1667,91.1667 44.1667,89.8333 45.5,88.5C 45.7678,86.901 45.4345,85.5676 44.5,84.5C 45.2309,82.4012 45.2309,80.4012 44.5,78.5C 43.4822,79.1925 42.4822,79.8592 41.5,80.5C 42.3795,77.7378 43.5462,75.0711 45,72.5C 57.0361,55.4601 70.8694,39.9601 86.5,26C 87.1667,25.3333 87.8333,25.3333 88.5,26C 79.6293,35.202 71.1293,44.702 63,54.5C 60.9286,56.4547 60.2619,58.788 61,61.5C 70.1667,52.3333 79.3333,43.1667 88.5,34C 89.1667,33.3333 89.8333,33.3333 90.5,34C 89.8742,34.7504 89.3742,35.5838 89,36.5C 83.2925,43.2967 78.1259,49.9634 73.5,56.5C 83.4801,48.3543 93.3134,40.021 103,31.5C 103.667,32.5 103.667,33.5 103,34.5C 94.5683,44.1014 85.0683,52.4348 74.5,59.5 Z"/></g>
<g><path style="opacity:1" fill="#211913" d="M 39.5,80.5 C 37.742,80.8769 36.0754,81.5435 34.5,82.5C 34.1667,82.1667 33.8333,81.8333 33.5,81.5C 34.801,78.5729 35.801,75.5729 36.5,72.5C 48.2855,56.1867 61.6189,41.02 76.5,27C 77.1667,26.3333 77.8333,26.3333 78.5,27C 63.4715,43.071 50.1382,60.4044 38.5,79C 39.056,79.3826 39.3893,79.8826 39.5,80.5 Z"/></g>
<g><path style="opacity:1" fill="#f6ad77" d="M 115.5,51.5 C 115.938,59.3411 117.271,67.0078 119.5,74.5C 119.334,80.5092 119.501,86.5092 120,92.5C 121.997,89.1548 123.497,85.4882 124.5,81.5C 124.263,78.9365 123.763,78.9365 123,81.5C 122.517,80.552 122.351,79.552 122.5,78.5C 123.5,77.8333 124.5,77.1667 125.5,76.5C 126.638,78.7172 126.805,81.7172 126,85.5C 122.008,93.4281 119.008,101.761 117,110.5C 114.198,116.478 110.698,121.811 106.5,126.5C 103.946,127.388 101.279,127.721 98.5,127.5C 98.5,126.167 98.5,124.833 98.5,123.5C 95.8333,123.5 93.1667,123.5 90.5,123.5C 91.0624,127.099 89.5624,129.099 86,129.5C 83.0044,129.086 80.5044,127.752 78.5,125.5C 77.3132,126.653 76.3132,126.653 75.5,125.5C 70.3099,115.783 65.9766,105.616 62.5,95C 66.9316,91.3617 71.9316,89.195 77.5,88.5C 82.6817,88.4427 82.6817,87.776 77.5,86.5C 78.5312,85.2997 79.3645,83.9663 80,82.5C 80.3826,83.056 80.8826,83.3893 81.5,83.5C 82.2679,84.2625 82.7679,85.2625 83,86.5C 83.1667,85.8333 83.3333,85.1667 83.5,84.5C 81.3899,79.7257 80.3899,74.7257 80.5,69.5C 80.4142,68.5041 80.7476,67.6708 81.5,67C 89.0845,64.5411 96.0845,61.0411 102.5,56.5C 104.068,57.4731 105.735,57.6397 107.5,57C 110.639,55.6681 113.306,53.8348 115.5,51.5 Z"/></g>
<g><path style="opacity:1" fill="#130e0a" d="M 115.5,51.5 C 118.352,58.3717 120.685,65.5384 122.5,73C 122.715,74.9078 123.715,76.0744 125.5,76.5C 124.5,77.1667 123.5,77.8333 122.5,78.5C 121.686,80.631 121.186,82.9644 121,85.5C 120.823,81.6437 120.323,77.977 119.5,74.5C 117.271,67.0078 115.938,59.3411 115.5,51.5 Z"/></g>
<g><path style="opacity:1" fill="#3c3383" d="M 601.5,62.5 C 608.206,61.4075 614.039,63.0742 619,67.5C 618.983,86.5121 618.65,105.512 618,124.5C 632.217,106.618 646.05,88.4509 659.5,70C 669.082,69.9526 673.582,74.7859 673,84.5C 660.045,101.124 646.712,117.457 633,133.5C 629.305,138.362 625.805,143.362 622.5,148.5C 624.732,150.645 627.399,152.145 630.5,153C 646.064,158.077 661.398,163.743 676.5,170C 683.112,174.564 684.279,180.398 680,187.5C 678.576,189.876 676.576,191.543 674,192.5C 656.331,181.105 637.165,173.105 616.5,168.5C 617.16,178.61 618.327,188.61 620,198.5C 615.429,203.135 609.929,204.968 603.5,204C 601.951,202.786 600.785,201.286 600,199.5C 599.895,187.83 599.895,176.164 600,164.5C 592.846,158.659 592.846,152.659 600,146.5C 600.703,122.994 600.537,99.4938 599.5,76C 599.667,72.1667 599.833,68.3333 600,64.5C 600.717,63.9558 601.217,63.2891 601.5,62.5 Z"/></g>
<g><path style="opacity:1" fill="#18110c" d="M 115.5,71.5 C 115.565,71.9382 115.399,72.2716 115,72.5C 114.06,69.5583 112.06,68.2249 109,68.5C 104.518,68.9955 100.184,69.9955 96,71.5C 94.7308,70.0953 94.2308,68.4286 94.5,66.5C 99.5839,62.983 105.251,61.8163 111.5,63C 113.246,65.6587 114.58,68.492 115.5,71.5 Z"/></g>
<g><path style="opacity:1" fill="#16100b" d="M 102.5,56.5 C 96.0845,61.0411 89.0845,64.5411 81.5,67C 80.7476,67.6708 80.4142,68.5041 80.5,69.5C 79.7515,70.531 79.0848,71.6976 78.5,73C 73.1667,73.3333 67.8333,73.6667 62.5,74C 61.1068,75.1711 60.2735,76.6711 60,78.5C 59.5162,76.0871 59.8495,73.7538 61,71.5C 63.7395,68.8824 66.5728,66.3824 69.5,64C 67.9343,63.7003 66.601,64.2003 65.5,65.5C 64.9569,65.44 64.6236,65.1067 64.5,64.5C 66.8333,62.6667 69.1667,60.8333 71.5,59C 72.7494,58.2599 73.7494,58.4265 74.5,59.5C 74.3691,60.3764 74.7025,61.0431 75.5,61.5C 77.8333,60 80.1667,58.5 82.5,57C 90.3191,50.4828 97.9858,44.1494 105.5,38C 100.708,45.126 94.8747,51.2927 88,56.5C 87.6905,57.7659 87.1905,58.9326 86.5,60C 89.5421,59.6731 92.2088,58.3397 94.5,56C 101.333,50.5 107.5,44.3333 113,37.5C 113.14,39.2555 112.64,40.9222 111.5,42.5C 111.667,42.8333 111.833,43.1667 112,43.5C 112.915,42.6721 113.581,41.6721 114,40.5C 114.667,41.5 114.667,42.5 114,43.5C 111.752,46.328 109.752,49.328 108,52.5C 105.537,53.0322 103.703,54.3655 102.5,56.5 Z"/></g>
<g><path style="opacity:1" fill="#a5734f" d="M 80.5,61.5 C 81.2389,61.369 81.9056,61.5357 82.5,62C 80.8333,63.6667 79.1667,65.3333 77.5,67C 75.8333,67.6667 74.1667,67.6667 72.5,67C 75.4068,65.3909 78.0734,63.5576 80.5,61.5 Z"/></g>
<g><path style="opacity:1" fill="#e29059" d="M 94.5,66.5 C 94.2308,68.4286 94.7308,70.0953 96,71.5C 100.184,69.9955 104.518,68.9955 109,68.5C 112.06,68.2249 114.06,69.5583 115,72.5C 115.399,72.2716 115.565,71.9382 115.5,71.5C 116.871,76.3244 116.538,81.1578 114.5,86C 108.651,86.8184 102.985,86.6517 97.5,85.5C 99.403,85.2041 101.07,84.5375 102.5,83.5C 106.064,84.4227 109.731,84.756 113.5,84.5C 114.342,74.8431 110.009,71.0098 100.5,73C 99.2899,74.0391 98.2899,75.2058 97.5,76.5C 95.8372,78.4385 95.1706,80.7718 95.5,83.5C 93.9814,80.4744 93.3148,77.1411 93.5,73.5C 93.5034,70.9746 93.8367,68.6413 94.5,66.5 Z"/></g>
<g><path style="opacity:1" fill="#ea945b" d="M 80.5,69.5 C 80.3899,74.7257 81.3899,79.7257 83.5,84.5C 83.3333,85.1667 83.1667,85.8333 83,86.5C 82.7679,85.2625 82.2679,84.2625 81.5,83.5C 79.1094,77.6378 74.776,75.4712 68.5,77C 66.9371,77.7589 65.9371,78.9256 65.5,80.5C 64.5269,82.9479 64.1936,85.6146 64.5,88.5C 68.6372,88.9658 72.9705,88.9658 77.5,88.5C 71.9316,89.195 66.9316,91.3617 62.5,95C 65.9766,105.616 70.3099,115.783 75.5,125.5C 63.9082,121.076 55.7415,113.076 51,101.5C 50.5172,102.448 50.3505,103.448 50.5,104.5C 47.9009,104.451 45.7342,103.451 44,101.5C 41.676,98.5201 40.176,95.1867 39.5,91.5C 40.7899,90.9423 41.6232,89.9423 42,88.5C 42.3333,88.8333 42.6667,89.1667 43,89.5C 41.8609,93.1383 42.5276,96.4717 45,99.5C 44.3885,97.0375 44.5552,94.7042 45.5,92.5C 46.6452,97.5554 49.6452,98.8887 54.5,96.5C 53.6649,88.5013 53.1649,80.5013 53,72.5C 57.6015,70.7866 61.7682,68.4532 65.5,65.5C 66.601,64.2003 67.9343,63.7003 69.5,64C 66.5728,66.3824 63.7395,68.8824 61,71.5C 59.8495,73.7538 59.5162,76.0871 60,78.5C 60.2735,76.6711 61.1068,75.1711 62.5,74C 67.8333,73.6667 73.1667,73.3333 78.5,73C 79.0848,71.6976 79.7515,70.531 80.5,69.5 Z"/></g>
<g><path style="opacity:1" fill="#3b3283" d="M 498.5,126.5 C 498.691,134.201 498.358,141.868 497.5,149.5C 495.088,167.155 487.755,182.321 475.5,195C 452.39,207.699 436.557,201.532 428,176.5C 422,153.504 422,130.504 428,107.5C 431.657,96.0109 437.491,85.8442 445.5,77C 459.951,70.3134 472.784,72.8134 484,84.5C 493.304,96.9117 498.138,110.912 498.5,126.5 Z"/></g>
<g><path style="opacity:1" fill="#3c3283" d="M 540.5,72.5 C 557.549,73.0452 569.716,81.0452 577,96.5C 588.312,126.359 586.312,155.359 571,183.5C 560.308,199.953 545.808,204.786 527.5,198C 518.638,190.114 513.138,180.28 511,168.5C 505.886,143.408 508.219,119.075 518,95.5C 521.333,90.1667 524.667,84.8333 528,79.5C 531.739,76.2185 535.905,73.8852 540.5,72.5 Z"/></g>
<g><path style="opacity:1" fill="#32261a" d="M 102.5,83.5 C 101.167,82.8333 100.167,81.8333 99.5,80.5C 101.896,82.2121 104.562,82.7121 107.5,82C 109.907,79.6374 110.074,77.1374 108,74.5C 107.749,76.433 107.249,78.2663 106.5,80C 104.648,80.7726 103.314,80.2726 102.5,78.5C 103.773,77.9232 103.773,77.2565 102.5,76.5C 100.801,77.8146 99.1347,77.8146 97.5,76.5C 98.2899,75.2058 99.2899,74.0391 100.5,73C 110.009,71.0098 114.342,74.8431 113.5,84.5C 109.731,84.756 106.064,84.4227 102.5,83.5 Z"/></g>
<g><path style="opacity:1" fill="#3b3283" d="M 328.5,169.5 C 329.827,151.329 329.827,132.996 328.5,114.5C 327.893,114.624 327.56,114.957 327.5,115.5C 323.203,118.232 318.703,120.565 314,122.5C 307.391,121.058 303.224,117.058 301.5,110.5C 302.054,108.372 303.387,106.872 305.5,106C 313.167,102.167 320.833,98.3333 328.5,94.5C 328.242,75.5939 335.409,72.2606 350,84.5C 358.939,79.626 368.439,77.4593 378.5,78C 386.932,82.6963 390.765,89.8629 390,99.5C 386.261,111.237 379.428,120.737 369.5,128C 381.036,127.809 392.369,129.142 403.5,132C 416.961,140.123 420.127,151.29 413,165.5C 406.95,172.216 399.784,177.383 391.5,181C 378.063,186.534 364.396,191.368 350.5,195.5C 351.457,201.048 349.123,204.215 343.5,205C 336.835,206.749 332.002,204.582 329,198.5C 328.5,188.839 328.334,179.172 328.5,169.5 Z"/></g>
<g><path style="opacity:1" fill="#634823" d="M 99.5,80.5 C 100.29,79.5987 101.29,78.9321 102.5,78.5C 103.314,80.2726 104.648,80.7726 106.5,80C 107.249,78.2663 107.749,76.433 108,74.5C 110.074,77.1374 109.907,79.6374 107.5,82C 104.562,82.7121 101.896,82.2121 99.5,80.5 Z"/></g>
<g><path style="opacity:1" fill="#857b00" d="M 129.5,74.5 C 128.897,78.2728 128.23,81.9394 127.5,85.5C 126.92,81.351 127.586,77.6843 129.5,74.5 Z"/></g>
<g><path style="opacity:1" fill="#c6c0b7" d="M 97.5,76.5 C 99.1347,77.8146 100.801,77.8146 102.5,76.5C 103.773,77.2565 103.773,77.9232 102.5,78.5C 101.29,78.9321 100.29,79.5987 99.5,80.5C 100.167,81.8333 101.167,82.8333 102.5,83.5C 101.07,84.5375 99.403,85.2041 97.5,85.5C 96.5,85.1667 95.8333,84.5 95.5,83.5C 95.1706,80.7718 95.8372,78.4385 97.5,76.5 Z"/></g>
<g><path style="opacity:1" fill="#bfbdb5" d="M 110.5,77.5 C 112.28,78.9899 112.946,80.9899 112.5,83.5C 111.127,83.6567 109.793,83.49 108.5,83C 110.155,81.5557 110.822,79.7224 110.5,77.5 Z"/></g>
<g><path style="opacity:1" fill="#d38552" d="M 44.5,84.5 C 45.4345,85.5676 45.7678,86.901 45.5,88.5C 42.9788,87.2496 40.6455,87.5829 38.5,89.5C 38.2148,87.712 38.5481,86.0453 39.5,84.5C 41.3558,84.2077 43.0224,84.2077 44.5,84.5 Z"/></g>
<g><path style="opacity:1" fill="#b5b3ac" d="M 64.5,88.5 C 64.1936,85.6146 64.5269,82.9479 65.5,80.5C 66.787,79.2317 67.787,79.565 68.5,81.5C 69.6086,80.4104 70.6086,80.4104 71.5,81.5C 67.4537,82.3937 66.7871,84.227 69.5,87C 68.0953,88.2692 66.4286,88.7692 64.5,88.5 Z"/></g>
<g><path style="opacity:1" fill="#463320" d="M 81.5,83.5 C 80.8826,83.3893 80.3826,83.056 80,82.5C 79.3645,83.9663 78.5312,85.2997 77.5,86.5C 82.6817,87.776 82.6817,88.4427 77.5,88.5C 72.9705,88.9658 68.6372,88.9658 64.5,88.5C 66.4286,88.7692 68.0953,88.2692 69.5,87C 66.7871,84.227 67.4537,82.3937 71.5,81.5C 70.6086,80.4104 69.6086,80.4104 68.5,81.5C 67.787,79.565 66.787,79.2317 65.5,80.5C 65.9371,78.9256 66.9371,77.7589 68.5,77C 74.776,75.4712 79.1094,77.6378 81.5,83.5 Z"/></g>
<g><path style="opacity:1" fill="#fae809" d="M 465.5,86.5 C 467.592,86.5614 469.092,87.5614 470,89.5C 477.412,105.713 480.079,122.713 478,140.5C 476.99,152.549 474.324,164.216 470,175.5C 467.576,180.686 464.409,185.353 460.5,189.5C 457.195,188.028 454.695,185.695 453,182.5C 444.932,164.67 442.266,146.003 445,126.5C 446.475,115.076 450.141,104.409 456,94.5C 459.358,91.9688 462.524,89.3021 465.5,86.5 Z"/></g>
<g><path style="opacity:1" fill="#fbe907" d="M 561.5,107.5 C 562.302,119.148 562.635,130.815 562.5,142.5C 562.153,155.888 558.986,168.555 553,180.5C 550.966,183.909 548.466,186.909 545.5,189.5C 538.791,184.093 534.624,177.093 533,168.5C 525.959,142.202 528.959,117.202 542,93.5C 544.833,91.3333 547.667,89.1667 550.5,87C 551.5,86.3333 552.5,86.3333 553.5,87C 558.229,93.0191 560.896,99.8524 561.5,107.5 Z"/></g>
<g><path style="opacity:1" fill="#644630" d="M 119.5,74.5 C 120.323,77.977 120.823,81.6437 121,85.5C 121.186,82.9644 121.686,80.631 122.5,78.5C 122.351,79.552 122.517,80.552 123,81.5C 123.763,78.9365 124.263,78.9365 124.5,81.5C 123.497,85.4882 121.997,89.1548 120,92.5C 119.501,86.5092 119.334,80.5092 119.5,74.5 Z"/></g>
<g><path style="opacity:1" fill="#593923" d="M 45.5,88.5 C 44.1667,89.8333 44.1667,91.1667 45.5,92.5C 44.5552,94.7042 44.3885,97.0375 45,99.5C 42.5276,96.4717 41.8609,93.1383 43,89.5C 42.6667,89.1667 42.3333,88.8333 42,88.5C 41.6232,89.9423 40.7899,90.9423 39.5,91.5C 38.6618,91.1583 38.3284,90.4916 38.5,89.5C 40.6455,87.5829 42.9788,87.2496 45.5,88.5 Z"/></g>
<g><path style="opacity:1" fill="#40291a" d="M 96.5,92.5 C 97.2589,94.6657 96.2589,96.1657 93.5,97C 85.6648,96.4146 85.6648,95.7479 93.5,95C 94.9423,94.6232 95.9423,93.7899 96.5,92.5 Z"/></g>
<g><path style="opacity:1" fill="#f1e014" d="M 368.5,95.5 C 369.873,95.3433 371.207,95.51 372.5,96C 365.266,103.904 357.433,111.071 349,117.5C 348.333,112.833 348.333,108.167 349,103.5C 355.314,100.084 361.814,97.4171 368.5,95.5 Z"/></g>
<g><path style="opacity:1" fill="#2d241d" d="M 103.5,98.5 C 104.756,98.4614 105.756,98.9614 106.5,100C 102.675,102.818 100.842,106.652 101,111.5C 96.3911,113.51 91.5577,114.01 86.5,113C 84.2274,110.034 82.2274,106.867 80.5,103.5C 87.5871,103.581 94.9205,103.081 102.5,102C 103.337,100.989 103.67,99.8221 103.5,98.5 Z"/></g>
<g><path style="opacity:1" fill="#ededed" d="M 91.5,104.5 C 94.5,104.5 97.5,104.5 100.5,104.5C 100.501,110.671 97.3341,113.338 91,112.5C 86.8261,112.198 84.9928,109.865 85.5,105.5C 87.7354,105.795 89.7354,105.461 91.5,104.5 Z"/></g>
<g><path style="opacity:1" fill="#39281c" d="M 85.5,116.5 C 90.0488,121.34 94.8821,121.674 100,117.5C 100.379,119.57 99.5453,121.07 97.5,122C 91.5883,123.961 87.5883,122.127 85.5,116.5 Z"/></g>
<g><path style="opacity:1" fill="#f0985d" d="M 84.5,135.5 C 87.9619,136.482 91.6286,136.815 95.5,136.5C 90.5,141.167 85.5,145.833 80.5,150.5C 77.3609,144.23 73.6942,138.23 69.5,132.5C 70.0412,130.465 70.7078,128.465 71.5,126.5C 76.1269,129.135 80.4602,132.135 84.5,135.5 Z"/></g>
<g><path style="opacity:1" fill="#c9b92b" d="M 561.5,107.5 C 563.001,114.27 563.667,121.27 563.5,128.5C 563.499,133.346 563.166,138.012 562.5,142.5C 562.635,130.815 562.302,119.148 561.5,107.5 Z"/></g>
<g><path style="opacity:1" fill="#485700" d="M 102.5,135.5 C 106.997,137 110.997,139.333 114.5,142.5C 113.833,142.5 113.5,142.833 113.5,143.5C 111.093,142.206 108.926,140.539 107,138.5C 107.019,140.107 107.185,141.774 107.5,143.5C 108.081,150.061 107.248,156.395 105,162.5C 97.2719,166.21 89.4386,166.377 81.5,163C 76.6993,155.903 72.5326,148.403 69,140.5C 68.31,139.262 67.81,139.262 67.5,140.5C 66.7281,139.306 65.7281,138.306 64.5,137.5C 63.1007,136.11 61.4341,135.11 59.5,134.5C 61.8261,130.763 64.4928,130.596 67.5,134C 73.2914,141.744 78.4581,149.911 83,158.5C 85.909,160.858 89.2423,161.858 93,161.5C 97.8516,162.32 100.852,160.32 102,155.5C 102.5,148.842 102.666,142.175 102.5,135.5 Z"/></g>
<g><path style="opacity:1" fill="#c77c00" d="M 59.5,134.5 C 61.4341,135.11 63.1007,136.11 64.5,137.5C 62.8008,137.34 61.1341,137.506 59.5,138C 50.7871,143.016 42.4537,148.516 34.5,154.5C 34.8627,155.183 35.1961,155.85 35.5,156.5C 34.8333,156.5 34.5,156.833 34.5,157.5C 33.207,158.842 32.3736,160.509 32,162.5C 28.1785,177.118 24.6785,191.785 21.5,206.5C 25.7016,206.183 29.7016,206.517 33.5,207.5C 28.4889,207.334 23.4889,207.501 18.5,208C 16.5789,208.36 14.9122,209.194 13.5,210.5C 12.8933,210.376 12.56,210.043 12.5,209.5C 17.1508,191.23 21.6508,172.897 26,154.5C 28.9281,153.24 30.7614,151.073 31.5,148C 40.7377,143.214 50.0711,138.714 59.5,134.5 Z"/></g>
<g><path style="opacity:1" fill="#fbae76" d="M 95.5,136.5 C 97.1667,136.5 98.8333,136.5 100.5,136.5C 100.5,141.5 100.5,146.5 100.5,151.5C 100.917,157.369 98.2499,160.036 92.5,159.5C 86.2508,159.593 82.2508,156.593 80.5,150.5C 85.5,145.833 90.5,141.167 95.5,136.5 Z"/></g>
<g><path style="opacity:1" fill="#fba300" d="M 64.5,137.5 C 65.7281,138.306 66.7281,139.306 67.5,140.5C 70.9867,147.473 74.4867,154.473 78,161.5C 79.6374,163.81 81.804,165.31 84.5,166C 91.6976,167.054 98.6976,166.388 105.5,164C 106.717,162.352 107.55,160.519 108,158.5C 108.816,153.316 108.65,148.316 107.5,143.5C 107.185,141.774 107.019,140.107 107,138.5C 108.926,140.539 111.093,142.206 113.5,143.5C 117.826,146.406 121.326,150.072 124,154.5C 130.356,171.069 135.19,188.069 138.5,205.5C 135.104,207.319 131.437,208.986 127.5,210.5C 127.844,207.38 127.177,204.547 125.5,202C 126.996,200.669 128.329,199.169 129.5,197.5C 128.68,195.889 127.346,195.222 125.5,195.5C 125.633,184.928 124.133,174.595 121,164.5C 120.617,163.944 120.117,163.611 119.5,163.5C 119.245,160.984 118.411,158.65 117,156.5C 117.011,160.225 117.677,163.892 119,167.5C 119.416,182.108 119.583,196.608 119.5,211C 116.854,211.497 114.187,211.664 111.5,211.5C 108.824,212.008 106.157,212.175 103.5,212C 106.694,206.401 106.028,201.401 101.5,197C 99.4213,196.192 97.4213,196.359 95.5,197.5C 97.7408,204.356 95.5742,209.356 89,212.5C 87.5765,215.648 86.0765,218.648 84.5,221.5C 82.1016,221.259 80.1016,221.926 78.5,223.5C 77.7375,224.268 76.7375,224.768 75.5,225C 70.5111,225.499 65.5111,225.666 60.5,225.5C 58.3926,224.532 56.0593,224.198 53.5,224.5C 53.0844,216.914 54.251,209.581 57,202.5C 58.6052,188.179 55.2719,175.179 47,163.5C 45.871,161.859 44.371,160.859 42.5,160.5C 40.1838,159.194 37.8505,157.861 35.5,156.5C 35.1961,155.85 34.8627,155.183 34.5,154.5C 42.4537,148.516 50.7871,143.016 59.5,138C 61.1341,137.506 62.8008,137.34 64.5,137.5 Z"/></g>
<g><path style="opacity:1" fill="#4c311f" d="M 84.5,135.5 C 90.1667,135.5 95.8333,135.5 101.5,135.5C 101.821,141.026 101.488,146.36 100.5,151.5C 100.5,146.5 100.5,141.5 100.5,136.5C 98.8333,136.5 97.1667,136.5 95.5,136.5C 91.6286,136.815 87.9619,136.482 84.5,135.5 Z"/></g>
<g><path style="opacity:1" fill="#6a6063" d="M 327.5,115.5 C 327.56,114.957 327.893,114.624 328.5,114.5C 329.827,132.996 329.827,151.329 328.5,169.5C 328.83,151.326 328.497,133.326 327.5,115.5 Z"/></g>
<g><path style="opacity:1" fill="#beaf35" d="M 498.5,126.5 C 499.654,132.987 499.821,139.654 499,146.5C 498.768,147.737 498.268,148.737 497.5,149.5C 498.358,141.868 498.691,134.201 498.5,126.5 Z"/></g>
<g><path style="opacity:1" fill="#c7b632" d="M 391.5,146.5 C 382.815,146.464 374.149,146.797 365.5,147.5C 370.413,145.993 375.579,145.326 381,145.5C 384.683,145.501 388.183,145.835 391.5,146.5 Z"/></g>
<g><path style="opacity:1" fill="#fae907" d="M 391.5,146.5 C 395.728,146.215 398.895,147.549 401,150.5C 390.951,160.115 379.451,167.615 366.5,173C 360.833,175.5 355.167,178 349.5,180.5C 348.507,175.88 348.173,171.214 348.5,166.5C 348.5,161.167 348.5,155.833 348.5,150.5C 349.791,150.737 350.791,150.404 351.5,149.5C 356.092,148.402 360.759,147.735 365.5,147.5C 374.149,146.797 382.815,146.464 391.5,146.5 Z"/></g>
<g><path style="opacity:1" fill="#b8a932" d="M 351.5,149.5 C 350.791,150.404 349.791,150.737 348.5,150.5C 348.5,155.833 348.5,161.167 348.5,166.5C 347.511,161.025 347.178,155.358 347.5,149.5C 348.833,149.5 350.167,149.5 351.5,149.5 Z"/></g>
<g><path style="opacity:1" fill="#3e3482" d="M 720.5,155.5 C 736.737,154.243 744.57,161.576 744,177.5C 740.412,183.588 736.246,189.255 731.5,194.5C 733.098,197.601 735.265,200.268 738,202.5C 740.707,197.584 743.541,192.751 746.5,188C 750.145,187.741 752.978,189.241 755,192.5C 753.427,199.153 750.594,205.319 746.5,211C 748.95,214.453 751.783,217.62 755,220.5C 756.505,222.298 756.672,224.132 755.5,226C 752.366,226.79 749.366,226.457 746.5,225C 744.689,222.022 742.356,219.522 739.5,217.5C 732.101,224.914 723.435,227.08 713.5,224C 708.847,220.212 707.347,215.378 709,209.5C 711.906,203.436 715.406,197.769 719.5,192.5C 716.86,188.421 714.694,184.088 713,179.5C 709.509,169.513 712.009,161.513 720.5,155.5 Z"/></g>
<g><path style="opacity:1" fill="#fca400" d="M 34.5,157.5 C 47.3798,165.61 52.3798,177.277 49.5,192.5C 49.131,199.051 47.7977,205.384 45.5,211.5C 41.5621,209.965 37.5621,208.632 33.5,207.5C 29.7016,206.517 25.7016,206.183 21.5,206.5C 24.6785,191.785 28.1785,177.118 32,162.5C 32.3736,160.509 33.207,158.842 34.5,157.5 Z"/></g>
<g><path style="opacity:0.946" fill="#383084" d="M 1023.5,162.5 C 1023.5,167.5 1023.5,172.5 1023.5,177.5C 1019.05,190.998 1013.88,204.331 1008,217.5C 1005,248.774 1002.67,280.107 1001,311.5C 997.358,317.93 992.858,323.763 987.5,329C 986.256,329.456 985.423,328.956 985,327.5C 982.933,310.566 981.6,293.566 981,276.5C 980.86,273.957 980.194,271.623 979,269.5C 968.667,284.833 958.333,300.167 948,315.5C 941.953,323.092 935.786,330.592 929.5,338C 928.5,338.667 927.5,338.667 926.5,338C 929.163,330.678 931.83,323.344 934.5,316C 926.116,316.507 917.783,317.674 909.5,319.5C 908.167,319.167 906.833,318.833 905.5,318.5C 907.192,314.283 909.526,310.45 912.5,307C 921.382,302.725 930.382,298.725 939.5,295C 940.667,293.833 941.833,292.667 943,291.5C 947.899,279.121 952.565,266.788 957,254.5C 948.187,259.823 939.02,264.49 929.5,268.5C 928.833,268.167 928.167,267.833 927.5,267.5C 928.847,263.112 930.347,258.779 932,254.5C 945.591,243.954 959.091,233.287 972.5,222.5C 982.088,204.981 992.922,188.314 1005,172.5C 1008.92,167.232 1013.92,163.566 1020,161.5C 1021.26,161.648 1022.42,161.982 1023.5,162.5 Z"/></g>
<g><path style="opacity:1" fill="#2b2003" d="M 107.5,143.5 C 108.65,148.316 108.816,153.316 108,158.5C 107.55,160.519 106.717,162.352 105.5,164C 98.6976,166.388 91.6976,167.054 84.5,166C 81.804,165.31 79.6374,163.81 78,161.5C 74.4867,154.473 70.9867,147.473 67.5,140.5C 67.81,139.262 68.31,139.262 69,140.5C 72.5326,148.403 76.6993,155.903 81.5,163C 89.4386,166.377 97.2719,166.21 105,162.5C 107.248,156.395 108.081,150.061 107.5,143.5 Z"/></g>
<g><path style="opacity:1" fill="#f2e015" d="M 728.5,164.5 C 731.93,163.79 734.263,164.957 735.5,168C 733.584,174.668 730.251,180.501 725.5,185.5C 722.764,180.488 721.931,175.154 723,169.5C 724.73,167.598 726.563,165.931 728.5,164.5 Z"/></g>
<g><path style="opacity:1" fill="#3d2704" d="M 34.5,157.5 C 34.5,156.833 34.8333,156.5 35.5,156.5C 37.8505,157.861 40.1838,159.194 42.5,160.5C 51.2589,170.423 54.2589,181.757 51.5,194.5C 51.6659,189.489 51.4993,184.489 51,179.5C 50.8247,184.019 50.3247,188.353 49.5,192.5C 52.3798,177.277 47.3798,165.61 34.5,157.5 Z"/></g>
<g><path style="opacity:1" fill="#605a03" d="M 210.5,169.5 C 205.637,169.181 200.97,169.514 196.5,170.5C 195.5,170.5 194.5,170.5 193.5,170.5C 191.833,170.5 190.167,170.5 188.5,170.5C 195.777,168.481 203.11,168.148 210.5,169.5 Z"/></g>
<g><path style="opacity:1" fill="#cc7e00" d="M 42.5,160.5 C 44.371,160.859 45.871,161.859 47,163.5C 55.2719,175.179 58.6052,188.179 57,202.5C 54.251,209.581 53.0844,216.914 53.5,224.5C 56.0593,224.198 58.3926,224.532 60.5,225.5C 54.828,225.24 49.1613,224.907 43.5,224.5C 44.4912,221.019 46.1578,217.853 48.5,215C 48.1667,214 47.8333,213 47.5,212C 49.5363,206.317 50.8696,200.484 51.5,194.5C 54.2589,181.757 51.2589,170.423 42.5,160.5 Z"/></g>
<g><path style="opacity:1" fill="#10181c" d="M 171.5,169.5 C 171.5,170.167 171.5,170.833 171.5,171.5C 166.743,184.175 162.743,197.175 159.5,210.5C 174.176,209.353 188.843,209.353 203.5,210.5C 207.606,198.142 211.273,185.642 214.5,173C 214.355,172.228 214.022,171.561 213.5,171C 207.843,170.501 202.176,170.334 196.5,170.5C 200.97,169.514 205.637,169.181 210.5,169.5C 213.056,169.132 215.056,169.966 216.5,172C 213.19,185.73 209.19,199.23 204.5,212.5C 192.897,210.249 181.231,209.916 169.5,211.5C 165.5,211.5 161.5,211.5 157.5,211.5C 160.985,197.876 164.985,184.376 169.5,171C 169.836,169.97 170.503,169.47 171.5,169.5 Z"/></g>
<g><path style="opacity:1" fill="#00adf4" d="M 193.5,170.5 C 194.5,170.5 195.5,170.5 196.5,170.5C 202.176,170.334 207.843,170.501 213.5,171C 214.022,171.561 214.355,172.228 214.5,173C 211.273,185.642 207.606,198.142 203.5,210.5C 188.843,209.353 174.176,209.353 159.5,210.5C 162.743,197.175 166.743,184.175 171.5,171.5C 171.833,171.5 172.167,171.5 172.5,171.5C 179.557,172.83 186.557,172.496 193.5,170.5 Z"/></g>
<g><path style="opacity:1" fill="#0a1f29" d="M 188.5,174.5 C 195.101,177.693 198.101,183.026 197.5,190.5C 199.103,190.312 200.437,190.812 201.5,192C 199.833,192.333 198.167,192.667 196.5,193C 193.932,199.901 189.098,204.401 182,206.5C 175.171,202.836 172.671,197.169 174.5,189.5C 173.448,189.649 172.448,189.483 171.5,189C 173.134,188.506 174.801,188.34 176.5,188.5C 176.491,186.692 176.991,185.025 178,183.5C 181.155,179.826 184.655,176.826 188.5,174.5 Z"/></g>
<g><path style="opacity:1" fill="#009edf" d="M 189.5,178.5 C 191.912,178.244 193.579,179.244 194.5,181.5C 189.242,187.265 187.575,186.265 189.5,178.5 Z"/></g>
<g><path style="opacity:1" fill="#02a5e7" d="M 184.5,178.5 C 185.552,178.351 186.552,178.517 187.5,179C 186.475,181.071 185.642,183.238 185,185.5C 182.146,183.205 181.979,180.872 184.5,178.5 Z"/></g>
<g><path style="opacity:1" fill="#0d1717" d="M 188.5,170.5 C 190.167,170.5 191.833,170.5 193.5,170.5C 186.557,172.496 179.557,172.83 172.5,171.5C 177.87,171.608 183.203,171.275 188.5,170.5 Z"/></g>
<g><path style="opacity:1" fill="#00a6ea" d="M 180.5,182.5 C 181.931,183.78 182.598,185.447 182.5,187.5C 181.022,187.762 179.689,187.429 178.5,186.5C 179.18,185.14 179.847,183.807 180.5,182.5 Z"/></g>
<g><path style="opacity:1" fill="#00a0e1" d="M 193.5,183.5 C 195.308,184.918 195.975,186.918 195.5,189.5C 193.396,189.799 191.396,189.466 189.5,188.5C 190.857,186.814 192.19,185.148 193.5,183.5 Z"/></g>
<g><path style="opacity:1" fill="#00a3e5" d="M 176.5,190.5 C 178.288,190.215 179.955,190.548 181.5,191.5C 177.476,199.579 175.81,199.246 176.5,190.5 Z"/></g>
<g><path style="opacity:1" fill="#00a7eb" d="M 188.5,192.5 C 190.604,192.201 192.604,192.534 194.5,193.5C 191.147,201.815 189.147,201.482 188.5,192.5 Z"/></g>
<g><path style="opacity:1" fill="#231a05" d="M 113.5,143.5 C 113.5,142.833 113.833,142.5 114.5,142.5C 117.37,145.19 120.537,147.524 124,149.5C 131.279,167.336 136.945,185.669 141,204.5C 141.808,208.027 141.641,211.36 140.5,214.5C 139.833,215.5 139.167,216.5 138.5,217.5C 138.631,216.624 138.298,215.957 137.5,215.5C 131.04,217.526 126.04,221.193 122.5,226.5C 122.5,226.167 122.5,225.833 122.5,225.5C 121.839,222.213 121.339,218.88 121,215.5C 118.454,212.814 115.287,211.814 111.5,212.5C 111.5,212.167 111.5,211.833 111.5,211.5C 114.187,211.664 116.854,211.497 119.5,211C 119.583,196.608 119.416,182.108 119,167.5C 117.677,163.892 117.011,160.225 117,156.5C 118.411,158.65 119.245,160.984 119.5,163.5C 122.946,178.85 123.28,194.183 120.5,209.5C 120.511,211.045 120.844,212.378 121.5,213.5C 124.734,215.678 125.067,218.178 122.5,221C 123.5,221.667 124.5,221.667 125.5,221C 129.672,217.501 134.338,214.834 139.5,213C 139.515,210.442 139.182,207.942 138.5,205.5C 135.19,188.069 130.356,171.069 124,154.5C 121.326,150.072 117.826,146.406 113.5,143.5 Z"/></g>
<g><path style="opacity:1" fill="#cf8000" d="M 119.5,163.5 C 120.117,163.611 120.617,163.944 121,164.5C 124.133,174.595 125.633,184.928 125.5,195.5C 127.346,195.222 128.68,195.889 129.5,197.5C 128.329,199.169 126.996,200.669 125.5,202C 127.177,204.547 127.844,207.38 127.5,210.5C 125.97,212.346 123.97,213.346 121.5,213.5C 120.844,212.378 120.511,211.045 120.5,209.5C 123.28,194.183 122.946,178.85 119.5,163.5 Z"/></g>
<g><path style="opacity:1" fill="#00a3e6" d="M 181.5,194.5 C 182.399,197.428 182.066,200.428 180.5,203.5C 179.167,202.833 178.167,201.833 177.5,200.5C 178.467,198.21 179.8,196.21 181.5,194.5 Z"/></g>
<g><path style="opacity:1" fill="#00a2e4" d="M 185.5,194.5 C 187.961,196.744 188.627,199.411 187.5,202.5C 186.264,203.246 184.93,203.579 183.5,203.5C 183.756,200.402 184.422,197.402 185.5,194.5 Z"/></g>
<g><path style="opacity:1" fill="#fab079" d="M 99.5,198.5 C 102.704,199.378 104.37,201.545 104.5,205C 104.18,207.799 103.18,210.299 101.5,212.5C 104.98,213.806 108.313,213.806 111.5,212.5C 115.287,211.814 118.454,212.814 121,215.5C 121.339,218.88 121.839,222.213 122.5,225.5C 120.611,226.604 118.945,227.937 117.5,229.5C 114.227,232.144 110.56,234.311 106.5,236C 99.5079,236.5 92.5079,236.666 85.5,236.5C 85.1774,232.774 85.5108,229.107 86.5,225.5C 91.4971,222.736 93.9971,218.403 94,212.5C 100.013,209.474 101.846,204.807 99.5,198.5 Z"/></g>
<g><path style="opacity:1" fill="#e9d81f" d="M 725.5,201.5 C 728.298,202.706 730.465,204.706 732,207.5C 732.667,208.5 732.667,209.5 732,210.5C 728.663,214.578 724.497,217.245 719.5,218.5C 720.097,212.312 722.097,206.646 725.5,201.5 Z"/></g>
<g><path style="opacity:1" fill="#4b5b00" d="M 33.5,207.5 C 37.5621,208.632 41.5621,209.965 45.5,211.5C 47.0899,213.995 46.5899,215.995 44,217.5C 41.4398,216.47 38.9398,215.303 36.5,214C 33.8333,213.833 31.1667,213.667 28.5,213.5C 21.8559,212.993 15.8559,214.66 10.5,218.5C 10.1667,217.833 9.83333,217.167 9.5,216.5C 10.6575,214.157 11.6575,211.823 12.5,209.5C 12.56,210.043 12.8933,210.376 13.5,210.5C 14.9122,209.194 16.5789,208.36 18.5,208C 23.4889,207.501 28.4889,207.334 33.5,207.5 Z"/></g>
<g><path style="opacity:1" fill="#4b5a00" d="M 138.5,205.5 C 139.182,207.942 139.515,210.442 139.5,213C 134.338,214.834 129.672,217.501 125.5,221C 124.5,221.667 123.5,221.667 122.5,221C 125.067,218.178 124.734,215.678 121.5,213.5C 123.97,213.346 125.97,212.346 127.5,210.5C 131.437,208.986 135.104,207.319 138.5,205.5 Z"/></g>
<g><path style="opacity:1" fill="#1d1c14" d="M 171.5,169.5 C 170.503,169.47 169.836,169.97 169.5,171C 164.985,184.376 160.985,197.876 157.5,211.5C 161.5,211.5 165.5,211.5 169.5,211.5C 165.702,212.483 161.702,212.817 157.5,212.5C 156.681,217.459 155.348,222.292 153.5,227C 154.071,228.599 155.071,229.766 156.5,230.5C 153.933,230.279 151.599,229.612 149.5,228.5C 149.5,227.833 149.5,227.167 149.5,226.5C 154.817,206.712 160.651,187.045 167,167.5C 168.133,165.789 169.633,165.289 171.5,166C 172.791,167.292 172.791,168.458 171.5,169.5 Z"/></g>
<g><path style="opacity:1" fill="#ed965d" d="M 42.5,219.5 C 36.3135,217.652 29.9801,217.152 23.5,218C 21.0988,218.795 18.9321,219.962 17,221.5C 14.2717,229.764 15.4384,237.431 20.5,244.5C 39.3555,245.887 58.0222,244.553 76.5,240.5C 76.6309,241.376 76.2975,242.043 75.5,242.5C 73.2046,243.432 70.8713,244.265 68.5,245C 55.3159,247.264 42.3159,249.764 29.5,252.5C 25.2397,253.796 20.9063,254.796 16.5,255.5C 14.369,250.563 12.2023,245.563 10,240.5C 9.08986,233.326 9.75652,226.326 12,219.5C 16.7332,216.034 22.0665,214.367 28,214.5C 33.6569,214.107 38.4902,215.773 42.5,219.5 Z"/></g>
<g><path style="opacity:1" fill="#f8ae78" d="M 138.5,217.5 C 138.238,218.978 138.571,220.311 139.5,221.5C 141.543,222.579 142.876,224.246 143.5,226.5C 141.163,226.163 138.83,226.163 136.5,226.5C 135.21,227.058 134.377,228.058 134,229.5C 133.501,233.152 133.335,236.818 133.5,240.5C 132.496,241.683 131.662,243.016 131,244.5C 126.705,238.695 126.538,232.862 130.5,227C 129.692,226.692 129.025,226.192 128.5,225.5C 130.982,221.676 134.316,219.009 138.5,217.5 Z"/></g>
<g><path style="opacity:1" fill="#fcb27a" d="M 42.5,219.5 C 42.7135,221.144 42.3802,222.644 41.5,224C 36.4271,224.1 31.7604,225.433 27.5,228C 36.0321,226.752 44.6987,226.252 53.5,226.5C 61.6772,227.639 70.0105,227.639 78.5,226.5C 78.8772,231.453 78.2105,236.119 76.5,240.5C 58.0222,244.553 39.3555,245.887 20.5,244.5C 15.4384,237.431 14.2717,229.764 17,221.5C 18.9321,219.962 21.0988,218.795 23.5,218C 29.9801,217.152 36.3135,217.652 42.5,219.5 Z"/></g>
<g><path style="opacity:1" fill="#de8e59" d="M 138.5,217.5 C 134.316,219.009 130.982,221.676 128.5,225.5C 129.025,226.192 129.692,226.692 130.5,227C 126.538,232.862 126.705,238.695 131,244.5C 131.662,243.016 132.496,241.683 133.5,240.5C 134.978,240.238 136.311,240.571 137.5,241.5C 133.998,243.868 133.498,246.868 136,250.5C 137.145,251.636 138.312,252.636 139.5,253.5C 139.062,253.435 138.728,253.601 138.5,254C 143.111,255.488 147.778,256.654 152.5,257.5C 151.232,259.387 149.399,260.387 147,260.5C 139.976,260.504 135.642,257.171 134,250.5C 133.768,251.737 133.268,252.737 132.5,253.5C 129.341,250.002 127.008,246.002 125.5,241.5C 125.496,237.746 125.663,234.079 126,230.5C 125.085,231.328 124.419,232.328 124,233.5C 122.648,231.406 122.148,229.073 122.5,226.5C 126.04,221.193 131.04,217.526 137.5,215.5C 138.298,215.957 138.631,216.624 138.5,217.5 Z"/></g>
<g><path style="opacity:1" fill="#7e2301" d="M 84.5,221.5 C 83.8333,222.167 83.1667,222.833 82.5,223.5C 80.89,226.203 79.89,229.203 79.5,232.5C 79.81,229.287 79.4767,226.287 78.5,223.5C 80.1016,221.926 82.1016,221.259 84.5,221.5 Z"/></g>
<g><path style="opacity:1" fill="#fca400" d="M 121.5,253.5 C 121.028,261.537 120.361,269.537 119.5,277.5C 112.002,280.915 104.335,282.249 96.5,281.5C 95.5,281.5 94.5,281.5 93.5,281.5C 91.901,281.232 90.5676,281.566 89.5,282.5C 86.1501,282.335 82.8168,282.502 79.5,283C 78.5291,284.481 77.1958,285.315 75.5,285.5C 74.391,285.443 73.391,285.11 72.5,284.5C 68.4068,282.955 64.4068,281.121 60.5,279C 54.8431,278.501 49.1764,278.334 43.5,278.5C 41.5864,275.316 40.9197,271.649 41.5,267.5C 52.3743,265.227 61.7076,260.06 69.5,252C 74.3504,250.704 79.017,249.037 83.5,247C 91.1507,247.796 98.8174,248.463 106.5,249C 110.734,246.268 114.067,242.768 116.5,238.5C 118.771,236.047 120.104,233.047 120.5,229.5C 121.498,237.472 121.831,245.472 121.5,253.5 Z"/></g>
<g><path style="opacity:1" fill="#f6a971" d="M 149.5,228.5 C 151.599,229.612 153.933,230.279 156.5,230.5C 157.688,231.364 158.855,232.364 160,233.5C 159.347,236.499 159.514,239.499 160.5,242.5C 160.297,244.208 159.464,245.541 158,246.5C 157.667,248.5 157.333,250.5 157,252.5C 154.609,253.39 153.109,255.057 152.5,257.5C 147.778,256.654 143.111,255.488 138.5,254C 138.728,253.601 139.062,253.435 139.5,253.5C 142.187,253.664 144.854,253.497 147.5,253C 143.713,252.452 140.213,251.286 137,249.5C 136.505,247.527 136.338,245.527 136.5,243.5C 139.016,243.755 141.35,244.589 143.5,246C 145.5,246.667 147.5,246.667 149.5,246C 145.599,245.324 142.099,243.824 139,241.5C 138.735,239.837 139.235,238.337 140.5,237C 144.516,236.814 148.516,236.814 152.5,237C 149.568,235.855 146.568,235.022 143.5,234.5C 143.5,232.5 143.5,230.5 143.5,228.5C 145.5,228.5 147.5,228.5 149.5,228.5 Z"/></g>
<g><path style="opacity:1" fill="#e7935b" d="M 99.5,198.5 C 101.846,204.807 100.013,209.474 94,212.5C 93.9971,218.403 91.4971,222.736 86.5,225.5C 85.5108,229.107 85.1774,232.774 85.5,236.5C 92.5079,236.666 99.5079,236.5 106.5,236C 110.56,234.311 114.227,232.144 117.5,229.5C 117.662,231.527 117.495,233.527 117,235.5C 114.407,237.549 111.907,239.715 109.5,242C 101.207,241.112 92.8737,240.278 84.5,239.5C 83.3765,226.75 87.5431,216.083 97,207.5C 98.7104,204.577 98.877,201.577 97.5,198.5C 98.2565,197.227 98.9232,197.227 99.5,198.5 Z"/></g>
<g><path style="opacity:1" fill="#332010" d="M 111.5,211.5 C 111.5,211.833 111.5,212.167 111.5,212.5C 108.313,213.806 104.98,213.806 101.5,212.5C 103.18,210.299 104.18,207.799 104.5,205C 104.37,201.545 102.704,199.378 99.5,198.5C 98.9232,197.227 98.2565,197.227 97.5,198.5C 98.877,201.577 98.7104,204.577 97,207.5C 87.5431,216.083 83.3765,226.75 84.5,239.5C 92.8737,240.278 101.207,241.112 109.5,242C 111.907,239.715 114.407,237.549 117,235.5C 117.495,233.527 117.662,231.527 117.5,229.5C 118.945,227.937 120.611,226.604 122.5,225.5C 122.5,225.833 122.5,226.167 122.5,226.5C 122.148,229.073 122.648,231.406 124,233.5C 124.419,232.328 125.085,231.328 126,230.5C 125.663,234.079 125.496,237.746 125.5,241.5C 124.71,240.391 124.21,239.058 124,237.5C 123.667,237.833 123.333,238.167 123,238.5C 122.826,243.684 122.326,248.684 121.5,253.5C 121.831,245.472 121.498,237.472 120.5,229.5C 120.104,233.047 118.771,236.047 116.5,238.5C 114.66,240.168 112.66,241.668 110.5,243C 103.451,243.323 96.4512,242.823 89.5,241.5C 87.1667,241.833 84.8333,242.167 82.5,242.5C 80.5462,245.59 77.8795,246.257 74.5,244.5C 60.9991,249.668 46.9991,252.334 32.5,252.5C 32.5,255.5 32.5,258.5 32.5,261.5C 32.11,258.203 31.11,255.203 29.5,252.5C 42.3159,249.764 55.3159,247.264 68.5,245C 70.8713,244.265 73.2046,243.432 75.5,242.5C 76.2975,242.043 76.6309,241.376 76.5,240.5C 78.2105,236.119 78.8772,231.453 78.5,226.5C 70.0105,227.639 61.6772,227.639 53.5,226.5C 56.0593,226.802 58.3926,226.468 60.5,225.5C 65.5111,225.666 70.5111,225.499 75.5,225C 76.7375,224.768 77.7375,224.268 78.5,223.5C 79.4767,226.287 79.81,229.287 79.5,232.5C 79.1522,236.557 78.4855,240.557 77.5,244.5C 80.7144,243.472 82.5477,241.138 83,237.5C 83.8151,232.648 83.6484,227.981 82.5,223.5C 83.1667,222.833 83.8333,222.167 84.5,221.5C 86.0765,218.648 87.5765,215.648 89,212.5C 95.5742,209.356 97.7408,204.356 95.5,197.5C 97.4213,196.359 99.4213,196.192 101.5,197C 106.028,201.401 106.694,206.401 103.5,212C 106.157,212.175 108.824,212.008 111.5,211.5 Z"/></g>
<g><path style="opacity:1" fill="#cc1f00" d="M 82.5,223.5 C 83.6484,227.981 83.8151,232.648 83,237.5C 82.5477,241.138 80.7144,243.472 77.5,244.5C 78.4855,240.557 79.1522,236.557 79.5,232.5C 79.89,229.203 80.89,226.203 82.5,223.5 Z"/></g>
<g><path style="opacity:1" fill="#cc7f00" d="M 116.5,238.5 C 114.067,242.768 110.734,246.268 106.5,249C 98.8174,248.463 91.1507,247.796 83.5,247C 79.017,249.037 74.3504,250.704 69.5,252C 61.7076,260.06 52.3743,265.227 41.5,267.5C 40.9197,271.649 41.5864,275.316 43.5,278.5C 40.5816,279.365 37.5816,280.365 34.5,281.5C 33.4769,274.865 32.8102,268.199 32.5,261.5C 32.5,258.5 32.5,255.5 32.5,252.5C 46.9991,252.334 60.9991,249.668 74.5,244.5C 77.8795,246.257 80.5462,245.59 82.5,242.5C 84.8333,242.167 87.1667,241.833 89.5,241.5C 96.4512,242.823 103.451,243.323 110.5,243C 112.66,241.668 114.66,240.168 116.5,238.5 Z"/></g>
<g><path style="opacity:1" fill="#4f3520" d="M 140.5,214.5 C 140.338,216.527 140.505,218.527 141,220.5C 142.878,222.043 144.378,223.876 145.5,226C 146.793,226.49 148.127,226.657 149.5,226.5C 149.5,227.167 149.5,227.833 149.5,228.5C 147.5,228.5 145.5,228.5 143.5,228.5C 143.5,230.5 143.5,232.5 143.5,234.5C 146.568,235.022 149.568,235.855 152.5,237C 148.516,236.814 144.516,236.814 140.5,237C 139.235,238.337 138.735,239.837 139,241.5C 142.099,243.824 145.599,245.324 149.5,246C 147.5,246.667 145.5,246.667 143.5,246C 141.35,244.589 139.016,243.755 136.5,243.5C 136.338,245.527 136.505,247.527 137,249.5C 140.213,251.286 143.713,252.452 147.5,253C 144.854,253.497 142.187,253.664 139.5,253.5C 138.312,252.636 137.145,251.636 136,250.5C 133.498,246.868 133.998,243.868 137.5,241.5C 136.311,240.571 134.978,240.238 133.5,240.5C 133.335,236.818 133.501,233.152 134,229.5C 134.377,228.058 135.21,227.058 136.5,226.5C 138.83,226.163 141.163,226.163 143.5,226.5C 142.876,224.246 141.543,222.579 139.5,221.5C 138.571,220.311 138.238,218.978 138.5,217.5C 139.167,216.5 139.833,215.5 140.5,214.5 Z"/></g>
<g><path style="opacity:1" fill="#d88854" d="M 136.5,226.5 C 139.961,226.796 141.961,228.629 142.5,232C 140.878,234.301 139.212,236.634 137.5,239C 136.552,239.483 135.552,239.649 134.5,239.5C 134.844,235.106 135.51,230.772 136.5,226.5 Z"/></g>
<g><path style="opacity:1" fill="#3c3383" d="M 497.5,260.5 C 498.094,287.657 498.761,314.657 499.5,341.5C 499.966,347.491 500.299,353.491 500.5,359.5C 510.11,356.847 519.776,354.347 529.5,352C 534.5,351.333 539.5,351.333 544.5,352C 550.581,353.155 553.247,356.822 552.5,363C 552.917,366.521 551.917,369.521 549.5,372C 540.808,371.001 532.141,371.334 523.5,373C 509.93,376.468 496.597,380.635 483.5,385.5C 480.003,384.845 477.503,382.845 476,379.5C 471.234,372.107 473.067,367.44 481.5,365.5C 481.833,356.333 482.167,347.167 482.5,338C 482.179,308.078 480.679,278.244 478,248.5C 484.548,245.489 490.548,246.489 496,251.5C 497.149,254.393 497.649,257.393 497.5,260.5 Z"/></g>
<g><path style="opacity:1" fill="#3c3383" d="M 341.5,249.5 C 348.161,249.413 353.328,252.08 357,257.5C 357.667,259.167 357.667,260.833 357,262.5C 346.307,281.219 336.141,300.219 326.5,319.5C 333.651,337.783 341.485,355.783 350,373.5C 352.374,383.4 348.54,389.733 338.5,392.5C 336.971,392.471 335.804,391.804 335,390.5C 328.98,374.266 322.48,358.266 315.5,342.5C 309.135,355.233 303.301,368.233 298,381.5C 291.636,385.81 285.636,385.477 280,380.5C 279.333,378.833 279.333,377.167 280,375.5C 288.503,356.495 297.003,337.495 305.5,318.5C 297.65,301.12 290.484,283.453 284,265.5C 282.909,260.902 284.743,258.069 289.5,257C 294.072,255.924 298.239,256.757 302,259.5C 306.742,271.313 311.742,282.98 317,294.5C 324.671,279.153 332.838,264.153 341.5,249.5 Z"/></g>
<g><path style="opacity:1" fill="#3c3383" d="M 687.5,249.5 C 703.357,245.849 714.857,251.183 722,265.5C 724.56,274.569 723.56,283.235 719,291.5C 710.093,304.547 698.593,314.713 684.5,322C 698.333,340.5 712.167,359 726,377.5C 726.919,384.902 723.752,389.068 716.5,390C 701.271,373.275 686.605,356.108 672.5,338.5C 670.338,352.754 668.504,367.087 667,381.5C 664.176,384.498 660.676,385.832 656.5,385.5C 656.466,371.492 656.799,357.492 657.5,343.5C 658.052,336.807 656.552,330.807 653,325.5C 651.014,319.944 652.847,316.944 658.5,316.5C 658.832,303.816 658.499,291.149 657.5,278.5C 646.908,285.448 640.741,282.781 639,270.5C 644.974,266.095 651.474,262.595 658.5,260C 659.249,258.266 659.749,256.433 660,254.5C 664.124,252.195 668.458,251.862 673,253.5C 677.975,252.218 682.808,250.884 687.5,249.5 Z"/></g>
<g><path style="opacity:1" fill="#3c3383" d="M 391.5,250.5 C 402.402,252.117 413.402,252.951 424.5,253C 438.204,254.104 449.704,259.604 459,269.5C 467.072,286.099 464.572,300.932 451.5,314C 436.14,325.68 419.14,334.18 400.5,339.5C 399.394,353.194 401.061,366.527 405.5,379.5C 404.781,381.728 403.448,383.561 401.5,385C 397.361,387.067 393.027,387.734 388.5,387C 387.333,385.833 386.167,384.667 385,383.5C 385.036,370.508 385.202,357.508 385.5,344.5C 375.256,346.914 369.923,342.914 369.5,332.5C 369.288,329.989 369.955,327.822 371.5,326C 376.496,325.389 381.496,324.889 386.5,324.5C 386.867,307.487 387.534,290.487 388.5,273.5C 383.21,274.659 377.877,275.159 372.5,275C 368.779,270.838 367.279,266.005 368,260.5C 368.903,259.299 370.069,258.465 371.5,258C 377.761,256.351 384.094,255.184 390.5,254.5C 390.433,253.041 390.766,251.708 391.5,250.5 Z"/></g>
<g><path style="opacity:1" fill="#3d3383" d="M 227.5,252.5 C 235.943,252.062 244.277,252.562 252.5,254C 256.822,258.861 257.655,264.361 255,270.5C 239.878,271.456 224.711,272.456 209.5,273.5C 209.5,285.167 209.5,296.833 209.5,308.5C 220.481,306.504 231.481,304.504 242.5,302.5C 252.809,301.969 256.642,306.635 254,316.5C 252.848,318.649 251.348,320.482 249.5,322C 241.306,320.552 232.973,320.219 224.5,321C 219.976,322.738 215.31,323.905 210.5,324.5C 211.002,336.339 212.668,348.006 215.5,359.5C 225.785,357.179 236.118,355.013 246.5,353C 253.5,352.333 260.5,352.333 267.5,353C 269.286,353.785 270.786,354.951 272,356.5C 272.667,360.5 272.667,364.5 272,368.5C 271.535,369.931 270.701,371.097 269.5,372C 258.532,371.455 247.532,371.455 236.5,372C 224.685,374.994 213.018,378.494 201.5,382.5C 193.974,380.023 190.641,375.023 191.5,367.5C 194.339,366.998 195.672,365.331 195.5,362.5C 194.905,352.169 194.238,341.835 193.5,331.5C 190.42,333.105 187.92,332.438 186,329.5C 180.777,320.844 182.944,315.844 192.5,314.5C 190.779,295.85 189.612,277.184 189,258.5C 189.5,258 190,257.5 190.5,257C 203.032,255.887 215.365,254.387 227.5,252.5 Z"/></g>
<g><path style="opacity:1" fill="#3d3383" d="M 758.5,273.5 C 757.505,285.322 757.172,297.322 757.5,309.5C 758.791,309.737 759.791,309.404 760.5,308.5C 770.719,305.99 781.053,303.99 791.5,302.5C 803.408,303.247 806.575,308.913 801,319.5C 800.167,320.333 799.333,321.167 798.5,322C 785.668,319.451 773.001,320.285 760.5,324.5C 759.338,329.131 759.172,333.798 760,338.5C 761.169,345.516 762.336,352.516 763.5,359.5C 774.139,357.272 784.805,355.106 795.5,353C 802.5,352.333 809.5,352.333 816.5,353C 820.001,355.335 821.667,358.668 821.5,363C 821.573,366.603 820.24,369.603 817.5,372C 794.899,369.2 773.232,372.534 752.5,382C 745.061,381.742 740.395,377.909 738.5,370.5C 740.23,367.848 742.23,365.515 744.5,363.5C 742.764,352.912 742.097,342.245 742.5,331.5C 740.143,331.663 737.81,331.497 735.5,331C 733.474,328.116 732.141,324.949 731.5,321.5C 732.679,317.053 735.679,314.719 740.5,314.5C 739.747,297.292 738.413,280.125 736.5,263C 736.396,260.855 737.063,259.021 738.5,257.5C 758.316,253.685 778.316,252.185 798.5,253C 801.542,253.555 803.375,255.388 804,258.5C 804.978,262.9 804.478,267.067 802.5,271C 787.793,271.444 773.126,272.277 758.5,273.5 Z"/></g>
<g><path style="opacity:1" fill="#3c3383" d="M 587.5,253.5 C 604.883,252.273 617.717,259.273 626,274.5C 638.623,305.249 636.956,335.249 621,364.5C 610.567,380.311 596.4,385.144 578.5,379C 573.857,375.231 570.024,370.731 567,365.5C 556.085,337.666 555.752,309.666 566,281.5C 569.227,274.044 573.227,267.044 578,260.5C 581.068,257.917 584.235,255.584 587.5,253.5 Z"/></g>
<g><path style="opacity:1" fill="#3d3112" d="M 156.5,230.5 C 158.39,230.297 159.89,230.963 161,232.5C 161.667,236.833 161.667,241.167 161,245.5C 159.806,247.623 159.14,249.957 159,252.5C 157.846,253.743 156.512,254.743 155,255.5C 153.177,260.33 149.677,262.497 144.5,262C 139.607,260.943 135.607,258.443 132.5,254.5C 132.5,254.167 132.5,253.833 132.5,253.5C 133.268,252.737 133.768,251.737 134,250.5C 135.642,257.171 139.976,260.504 147,260.5C 149.399,260.387 151.232,259.387 152.5,257.5C 153.109,255.057 154.609,253.39 157,252.5C 157.333,250.5 157.667,248.5 158,246.5C 159.464,245.541 160.297,244.208 160.5,242.5C 159.514,239.499 159.347,236.499 160,233.5C 158.855,232.364 157.688,231.364 156.5,230.5 Z"/></g>
<g><path style="opacity:1" fill="#f9e70a" d="M 688.5,264.5 C 712.397,261.708 716.897,269.708 702,288.5C 694.442,296.896 685.609,303.563 675.5,308.5C 674.557,295.466 675.057,282.466 677,269.5C 680.723,267.324 684.556,265.657 688.5,264.5 Z"/></g>
<g><path style="opacity:1" fill="#fbe907" d="M 403.5,320.5 C 401.554,315.604 400.887,310.271 401.5,304.5C 401.626,294.151 402.126,283.818 403,273.5C 403.273,271.899 403.773,270.399 404.5,269C 420.252,266.309 434.919,268.975 448.5,277C 451.018,278.87 452.352,281.37 452.5,284.5C 449.324,293.523 443.657,300.69 435.5,306C 425.694,312.736 415.027,317.57 403.5,320.5 Z"/></g>
<g><path style="opacity:1" fill="#fbe906" d="M 601.5,266.5 C 603.624,267.031 605.124,268.365 606,270.5C 609.945,277.669 612.278,285.336 613,293.5C 615.871,317.133 612.537,339.8 603,361.5C 600.968,364.525 598.635,367.192 596,369.5C 592.828,368.502 590.495,366.502 589,363.5C 585.674,357.188 583.34,350.521 582,343.5C 579.519,326.033 580.186,308.7 584,291.5C 586.918,280.954 592.751,272.62 601.5,266.5 Z"/></g>
<g><path style="opacity:1" fill="#2a2318" d="M 125.5,241.5 C 127.008,246.002 129.341,250.002 132.5,253.5C 132.5,253.833 132.5,254.167 132.5,254.5C 127.958,251.763 125.125,247.763 124,242.5C 123.557,256.172 123.057,269.839 122.5,283.5C 121.732,282.737 121.232,281.737 121,280.5C 120.506,282.134 120.34,283.801 120.5,285.5C 115.624,287.235 110.624,288.569 105.5,289.5C 105.852,286.927 105.352,284.594 104,282.5C 103.667,283.167 103.333,283.833 103,284.5C 101.084,282.978 98.9171,281.978 96.5,281.5C 104.335,282.249 112.002,280.915 119.5,277.5C 120.361,269.537 121.028,261.537 121.5,253.5C 122.326,248.684 122.826,243.684 123,238.5C 123.333,238.167 123.667,237.833 124,237.5C 124.21,239.058 124.71,240.391 125.5,241.5 Z"/></g>
<g><path style="opacity:1" fill="#746857" d="M 63.5,282.5 C 57.0364,282.531 50.3698,282.697 43.5,283C 39.1908,284.219 34.8575,284.886 30.5,285C 31.056,284.617 31.3893,284.117 31.5,283.5C 38.5516,281.753 45.7182,280.42 53,279.5C 56.9003,279.206 60.4003,280.206 63.5,282.5 Z"/></g>
<g><path style="opacity:1" fill="#4a4338" d="M 63.5,282.5 C 65.1376,283.657 66.8043,284.824 68.5,286C 63.9072,287.251 59.2406,288.085 54.5,288.5C 52.2646,288.205 50.2646,288.539 48.5,289.5C 41.8333,289.833 35.1667,290.167 28.5,290.5C 28.33,289.178 28.6634,288.011 29.5,287C 28.552,286.517 27.552,286.351 26.5,286.5C 27.6594,284.75 29.326,283.75 31.5,283.5C 31.3893,284.117 31.056,284.617 30.5,285C 34.8575,284.886 39.1908,284.219 43.5,283C 50.3698,282.697 57.0364,282.531 63.5,282.5 Z"/></g>
<g><path style="opacity:1" fill="#463f34" d="M 89.5,282.5 C 90.5676,281.566 91.901,281.232 93.5,281.5C 94.209,282.404 95.209,282.737 96.5,282.5C 96.797,286.767 96.4637,290.934 95.5,295C 94.5,295.167 93.5,295.333 92.5,295.5C 90.3064,295.046 88.473,294.046 87,292.5C 85.7147,292.95 84.548,293.617 83.5,294.5C 81.3637,291.401 81.0304,288.068 82.5,284.5C 83.7224,286.978 85.7224,287.978 88.5,287.5C 88.2267,285.549 88.8934,284.049 90.5,283C 90.2716,282.601 89.9382,282.435 89.5,282.5 Z"/></g>
<g><path style="opacity:1" fill="#c9b927" d="M 758.5,273.5 C 757.855,285.548 758.522,297.215 760.5,308.5C 759.791,309.404 758.791,309.737 757.5,309.5C 757.172,297.322 757.505,285.322 758.5,273.5 Z"/></g>
<g><path style="opacity:1" fill="#2b261e" d="M 72.5,284.5 C 73.391,285.11 74.391,285.443 75.5,285.5C 75.3893,286.117 75.056,286.617 74.5,287C 77.4213,294.404 76.4213,301.238 71.5,307.5C 70.0109,303.109 69.0109,298.609 68.5,294C 63.8333,293.333 59.1667,293.333 54.5,294C 48.3722,294.265 43.7056,295.098 40.5,296.5C 36.3435,297.449 32.0102,298.116 27.5,298.5C 26.6993,296.958 26.366,295.292 26.5,293.5C 35.4594,292.124 44.4594,290.958 53.5,290C 51.8659,289.506 50.1992,289.34 48.5,289.5C 50.2646,288.539 52.2646,288.205 54.5,288.5C 58.0082,289.064 61.5082,290.064 65,291.5C 67.0197,290.968 67.853,289.635 67.5,287.5C 69.9893,287.759 71.656,286.759 72.5,284.5 Z"/></g>
<g><path style="opacity:1" fill="#796b5c" d="M 497.5,260.5 C 498.309,262.292 498.809,264.292 499,266.5C 499.5,291.498 499.667,316.498 499.5,341.5C 498.761,314.657 498.094,287.657 497.5,260.5 Z"/></g>
<g><path style="opacity:1" fill="#17130e" d="M 122.5,283.5 C 122.783,284.289 123.283,284.956 124,285.5C 124.167,289 124.333,292.5 124.5,296C 124.361,311.458 124.195,326.958 124,342.5C 123.296,344.278 122.796,346.112 122.5,348C 124.931,360.779 125.098,373.612 123,386.5C 121.667,387.167 120.333,387.833 119,388.5C 118.892,398.226 118.225,407.893 117,417.5C 111.857,428.452 106.191,439.119 100,449.5C 97.3394,455.315 95.1727,461.315 93.5,467.5C 93.8678,468.91 94.7011,469.91 96,470.5C 96.9432,475.16 97.7766,479.827 98.5,484.5C 95.8503,487.742 93.517,487.742 91.5,484.5C 87.5408,483.673 83.5408,483.173 79.5,483C 82.5,482.667 85.5,482.333 88.5,482C 91.022,480.314 90.6887,478.981 87.5,478C 88.4231,475.959 88.7564,473.792 88.5,471.5C 84.1311,471.467 79.7978,471.8 75.5,472.5C 74.9889,476.03 75.6556,479.196 77.5,482C 76.552,482.483 75.552,482.649 74.5,482.5C 74.7413,484.886 74.0746,486.886 72.5,488.5C 71.4314,490.969 70.0981,493.302 68.5,495.5C 70.3068,498.219 72.6402,500.219 75.5,501.5C 74.2617,501.81 74.2617,502.31 75.5,503C 76.5,503.167 77.5,503.333 78.5,503.5C 82.4763,502.558 86.4763,502.391 90.5,503C 93.4222,503.292 95.4222,504.792 96.5,507.5C 102.745,507.474 109.078,507.308 115.5,507C 120.212,504.461 123.212,500.627 124.5,495.5C 126.167,495.5 127.833,495.5 129.5,495.5C 129.693,499.013 129.026,502.346 127.5,505.5C 123.021,508.823 118.187,511.489 113,513.5C 106.952,514.484 100.785,514.484 94.5,513.5C 92.0875,511.611 89.7541,509.444 87.5,507C 83.3448,506.87 79.3448,507.704 75.5,509.5C 72.5059,508.67 69.8393,507.336 67.5,505.5C 66.4107,503.883 64.744,503.05 62.5,503C 64.1341,502.506 65.8008,502.34 67.5,502.5C 67.5,501.167 67.5,499.833 67.5,498.5C 64.9963,497.361 62.3297,496.694 59.5,496.5C 59.728,494.645 59.0613,493.812 57.5,494C 57.4102,497.172 57.9102,500.339 59,503.5C 56.9771,501.231 56.1437,498.564 56.5,495.5C 54.5,495.5 52.5,495.5 50.5,495.5C 50.5,496.833 50.5,498.167 50.5,499.5C 46.9438,499.725 46.6105,498.892 49.5,497C 49.3333,496.5 49.1667,496 49,495.5C 47.4912,497.919 45.3245,498.919 42.5,498.5C 45.4834,491.851 47.4834,485.184 48.5,478.5C 46.2191,475.811 46.8857,473.644 50.5,472C 51.4491,471.383 52.2825,471.549 53,472.5C 53.7826,474.433 53.2826,475.933 51.5,477C 54.0443,478.099 54.0443,479.265 51.5,480.5C 49.9954,477.869 49.3287,478.203 49.5,481.5C 53.3354,482.004 53.3354,483.004 49.5,484.5C 52.028,485.816 52.028,486.983 49.5,488C 50.3081,488.308 50.9747,488.808 51.5,489.5C 50.5721,490.768 50.4054,492.101 51,493.5C 51.8333,492 53,490.833 54.5,490C 53.0977,488.658 53.4311,487.824 55.5,487.5C 56.7133,487.747 57.38,488.414 57.5,489.5C 58.1047,491.026 59.2714,492.026 61,492.5C 61.3333,490.5 61.6667,488.5 62,486.5C 62.3333,487.833 62.6667,489.167 63,490.5C 64.0113,489.663 65.1779,489.33 66.5,489.5C 66.0224,485.653 65.6891,481.819 65.5,478C 67.229,476.211 67.8957,474.044 67.5,471.5C 65.2478,470.667 63.0811,470.667 61,471.5C 60.5439,472.744 61.0439,473.577 62.5,474C 59.9485,475.516 60.2819,476.349 63.5,476.5C 64.9448,474.796 64.7782,477.13 63,483.5C 62.5065,481.866 62.3398,480.199 62.5,478.5C 59.1043,478.633 58.7709,479.633 61.5,481.5C 59.6652,482.428 59.3318,483.594 60.5,485C 59.9056,485.464 59.2389,485.631 58.5,485.5C 58.631,484.761 58.4643,484.094 58,483.5C 57.4806,484.516 56.6473,485.182 55.5,485.5C 53.2919,484.728 53.6253,483.895 56.5,483C 55.0267,482.29 54.3601,481.124 54.5,479.5C 55.552,479.649 56.552,479.483 57.5,479C 53.5,477.667 53.5,476.333 57.5,475C 55.1144,474.716 54.4477,473.716 55.5,472C 54.5842,471.722 53.9175,471.222 53.5,470.5C 55.5273,470.662 57.5273,470.495 59.5,470C 60.056,469.617 60.3893,469.117 60.5,468.5C 62.2624,468.357 63.9291,468.691 65.5,469.5C 69.4584,458.673 72.9584,447.673 76,436.5C 77.5965,429.923 78.4298,423.256 78.5,416.5C 79.1667,415.833 79.8333,415.167 80.5,414.5C 81.6408,417.64 81.8075,420.973 81,424.5C 79.8756,430.209 78.5423,435.875 77,441.5C 76.4268,449.849 76.5935,458.182 77.5,466.5C 77.5,467.833 77.5,469.167 77.5,470.5C 81.8917,470.243 86.225,469.576 90.5,468.5C 90.8627,467.817 91.1961,467.15 91.5,466.5C 92.7426,460.672 94.5759,455.005 97,449.5C 102.857,439.786 108.191,429.786 113,419.5C 115.247,410.998 116.08,402.331 115.5,393.5C 116.72,391.716 116.72,390.05 115.5,388.5C 114.081,387.549 112.415,387.216 110.5,387.5C 110.5,387.167 110.5,386.833 110.5,386.5C 113.881,386.54 117.214,386.207 120.5,385.5C 122.163,372.416 121.83,359.416 119.5,346.5C 119.556,345.263 120.056,344.263 121,343.5C 121.5,331.838 121.667,320.171 121.5,308.5C 121.53,307.503 121.03,306.836 120,306.5C 115.892,308.471 111.725,310.304 107.5,312C 96.378,312.865 85.378,312.032 74.5,309.5C 68.4275,311.033 62.4275,312.866 56.5,315C 53.5184,315.498 50.5184,315.665 47.5,315.5C 47.3419,325.131 44.8419,334.131 40,342.5C 39.2917,343.381 38.4584,344.047 37.5,344.5C 36.8333,343.833 36.1667,343.167 35.5,342.5C 38.1756,340.974 40.0089,338.64 41,335.5C 44.0352,329.473 45.0352,323.14 44,316.5C 43.253,321.843 41.753,326.843 39.5,331.5C 39.6716,330.508 39.3382,329.842 38.5,329.5C 39.9836,324.967 40.6503,320.3 40.5,315.5C 37.1667,315.5 33.8333,315.5 30.5,315.5C 28.9581,314.837 27.2914,314.17 25.5,313.5C 24.5771,311.076 23.0771,309.076 21,307.5C 20.4589,303.338 19.9589,299.172 19.5,295C 20.1549,290.84 22.4883,288.007 26.5,286.5C 27.552,286.351 28.552,286.517 29.5,287C 28.6634,288.011 28.33,289.178 28.5,290.5C 35.1667,290.167 41.8333,289.833 48.5,289.5C 50.1992,289.34 51.8659,289.506 53.5,290C 44.4594,290.958 35.4594,292.124 26.5,293.5C 26.366,295.292 26.6993,296.958 27.5,298.5C 27.5,298.833 27.5,299.167 27.5,299.5C 26.2823,308.86 30.2823,313.693 39.5,314C 49.5247,315.66 58.858,313.827 67.5,308.5C 68.2491,304.197 68.0825,299.864 67,295.5C 66.4768,297.223 65.4768,298.556 64,299.5C 62.2874,298.863 62.1207,297.863 63.5,296.5C 61.9547,295.548 60.288,295.215 58.5,295.5C 52.5164,296.074 46.5164,296.407 40.5,296.5C 43.7056,295.098 48.3722,294.265 54.5,294C 59.1667,293.333 63.8333,293.333 68.5,294C 69.0109,298.609 70.0109,303.109 71.5,307.5C 76.4213,301.238 77.4213,294.404 74.5,287C 75.056,286.617 75.3893,286.117 75.5,285.5C 77.1958,285.315 78.5291,284.481 79.5,283C 82.8168,282.502 86.1501,282.335 89.5,282.5C 89.9382,282.435 90.2716,282.601 90.5,283C 88.8934,284.049 88.2267,285.549 88.5,287.5C 85.7224,287.978 83.7224,286.978 82.5,284.5C 81.0304,288.068 81.3637,291.401 83.5,294.5C 84.548,293.617 85.7147,292.95 87,292.5C 88.473,294.046 90.3064,295.046 92.5,295.5C 93.5,295.333 94.5,295.167 95.5,295C 96.4637,290.934 96.797,286.767 96.5,282.5C 95.209,282.737 94.209,282.404 93.5,281.5C 94.5,281.5 95.5,281.5 96.5,281.5C 98.9171,281.978 101.084,282.978 103,284.5C 103.333,283.833 103.667,283.167 104,282.5C 105.352,284.594 105.852,286.927 105.5,289.5C 110.624,288.569 115.624,287.235 120.5,285.5C 120.34,283.801 120.506,282.134 121,280.5C 121.232,281.737 121.732,282.737 122.5,283.5 Z M 72.5,461.5 C 73.7342,463.201 74.4008,465.201 74.5,467.5C 73.019,472.386 72.1857,477.386 72,482.5C 71.5621,485.376 70.5621,488.043 69,490.5C 68.8365,485.301 69.3365,480.134 70.5,475C 70.3552,473.774 70.0219,472.607 69.5,471.5C 70.9094,468.273 71.9094,464.94 72.5,461.5 Z"/></g>
<g><path style="opacity:1" fill="#716655" d="M 58.5,295.5 C 58.0825,296.222 57.4158,296.722 56.5,297C 46.9295,298.952 37.2628,299.786 27.5,299.5C 27.5,299.167 27.5,298.833 27.5,298.5C 32.0102,298.116 36.3435,297.449 40.5,296.5C 46.5164,296.407 52.5164,296.074 58.5,295.5 Z"/></g>
<g><path style="opacity:1" fill="#a56700" d="M 121.5,304.5 C 121.827,299.786 121.493,295.12 120.5,290.5C 107.075,297.548 92.7415,300.881 77.5,300.5C 77.8923,298.821 78.3923,297.154 79,295.5C 82.7721,296.274 86.6055,296.94 90.5,297.5C 100.969,294.279 111.636,291.613 122.5,289.5C 122.821,294.695 122.487,299.695 121.5,304.5 Z"/></g>
<g><path style="opacity:1" fill="#453e34" d="M 58.5,295.5 C 60.288,295.215 61.9547,295.548 63.5,296.5C 62.1207,297.863 62.2874,298.863 64,299.5C 65.4768,298.556 66.4768,297.223 67,295.5C 68.0825,299.864 68.2491,304.197 67.5,308.5C 58.858,313.827 49.5247,315.66 39.5,314C 30.2823,313.693 26.2823,308.86 27.5,299.5C 37.2628,299.786 46.9295,298.952 56.5,297C 57.4158,296.722 58.0825,296.222 58.5,295.5 Z"/></g>
<g><path style="opacity:1" fill="#f19c00" d="M 121.5,304.5 C 107.508,310.489 93.1751,311.156 78.5,306.5C 77.4461,306.68 76.4461,307.013 75.5,307.5C 75.1667,307.167 74.8333,306.833 74.5,306.5C 75.5133,304.473 76.5133,302.473 77.5,300.5C 92.7415,300.881 107.075,297.548 120.5,290.5C 121.493,295.12 121.827,299.786 121.5,304.5 Z"/></g>
<g><path style="opacity:1" fill="#463315" d="M 30.5,315.5 C 33.8333,315.5 37.1667,315.5 40.5,315.5C 40.6503,320.3 39.9836,324.967 38.5,329.5C 37.5974,331.636 36.4307,333.636 35,335.5C 33.1788,328.906 31.6788,322.239 30.5,315.5 Z"/></g>
<g><path style="opacity:1" fill="#6c4e20" d="M 121.5,308.5 C 121.667,320.171 121.5,331.838 121,343.5C 120.056,344.263 119.556,345.263 119.5,346.5C 121.83,359.416 122.163,372.416 120.5,385.5C 117.214,386.207 113.881,386.54 110.5,386.5C 104.167,386.5 97.8333,386.5 91.5,386.5C 91.0576,377.054 94.2242,369.054 101,362.5C 100.669,354.516 100.669,346.516 101,338.5C 103.103,333.698 104.269,328.698 104.5,323.5C 105.028,322.153 105.195,320.819 105,319.5C 103.487,322.524 101.487,325.191 99,327.5C 98.7811,326.062 98.2811,324.729 97.5,323.5C 96.5899,334.163 93.0899,343.83 87,352.5C 85.7599,361.514 84.4266,370.514 83,379.5C 81.2494,381.49 80.2494,383.823 80,386.5C 67.9236,391.212 55.757,391.546 43.5,387.5C 42.4634,385.262 42.2967,382.929 43,380.5C 45.7949,376.745 47.6282,372.578 48.5,368C 47.7112,363.917 46.2112,360.084 44,356.5C 43.3333,352.5 43.3333,348.5 44,344.5C 46.7483,337.673 48.915,330.673 50.5,323.5C 57.3982,321.089 64.3982,319.089 71.5,317.5C 75.9209,317.855 80.2543,318.688 84.5,320C 88.8333,320.667 93.1667,320.667 97.5,320C 105.633,316.433 113.633,312.6 121.5,308.5 Z"/></g>
<g><path style="opacity:1" fill="#c2b32e" d="M 401.5,304.5 C 400.887,310.271 401.554,315.604 403.5,320.5C 402.791,321.404 401.791,321.737 400.5,321.5C 400.178,315.642 400.511,309.975 401.5,304.5 Z"/></g>
<g><path style="opacity:1" fill="#4f3a18" d="M 121.5,308.5 C 113.633,312.6 105.633,316.433 97.5,320C 93.1667,320.667 88.8333,320.667 84.5,320C 80.2543,318.688 75.9209,317.855 71.5,317.5C 64.3982,319.089 57.3982,321.089 50.5,323.5C 48.915,330.673 46.7483,337.673 44,344.5C 43.3333,348.5 43.3333,352.5 44,356.5C 46.2112,360.084 47.7112,363.917 48.5,368C 47.6282,372.578 45.7949,376.745 43,380.5C 42.2967,382.929 42.4634,385.262 43.5,387.5C 41.8297,387.249 40.3297,386.582 39,385.5C 38.5237,371.829 38.0237,358.163 37.5,344.5C 38.4584,344.047 39.2917,343.381 40,342.5C 44.8419,334.131 47.3419,325.131 47.5,315.5C 50.5184,315.665 53.5184,315.498 56.5,315C 62.4275,312.866 68.4275,311.033 74.5,309.5C 85.378,312.032 96.378,312.865 107.5,312C 111.725,310.304 115.892,308.471 120,306.5C 121.03,306.836 121.53,307.503 121.5,308.5 Z"/></g>
<g><path style="opacity:1" fill="#513c19" d="M 104.5,323.5 C 104.269,328.698 103.103,333.698 101,338.5C 100.669,346.516 100.669,354.516 101,362.5C 94.2242,369.054 91.0576,377.054 91.5,386.5C 97.8333,386.5 104.167,386.5 110.5,386.5C 110.5,386.833 110.5,387.167 110.5,387.5C 101.46,387.748 92.4596,387.415 83.5,386.5C 86.3055,375.675 88.4722,364.675 90,353.5C 94.6366,347.316 97.3033,340.316 98,332.5C 100.417,329.598 102.584,326.598 104.5,323.5 Z"/></g>
<g><path style="opacity:1" fill="#453215" d="M 35.5,342.5 C 36.5187,338.781 37.8521,335.114 39.5,331.5C 41.753,326.843 43.253,321.843 44,316.5C 45.0352,323.14 44.0352,329.473 41,335.5C 40.0089,338.64 38.1756,340.974 35.5,342.5 Z"/></g>
<g><path style="opacity:0.792" fill="#e3d500" d="M 78.5,391.5 C 80.1454,390.521 81.4787,389.188 82.5,387.5C 83.6609,391.795 83.8275,396.129 83,400.5C 82.059,402.061 80.8924,403.395 79.5,404.5C 78.5078,400.217 78.1744,395.884 78.5,391.5 Z"/></g>
<g><path style="opacity:1" fill="#f0985e" d="M 115.5,388.5 C 116.72,390.05 116.72,391.716 115.5,393.5C 109.918,394.983 104.251,396.15 98.5,397C 96.1853,398.109 94.6853,399.943 94,402.5C 85.2792,422.921 81.1125,444.254 81.5,466.5C 80.1667,466.5 78.8333,466.5 77.5,466.5C 76.5935,458.182 76.4268,449.849 77,441.5C 78.5423,435.875 79.8756,430.209 81,424.5C 81.8075,420.973 81.6408,417.64 80.5,414.5C 81.1278,409.572 82.6278,404.905 85,400.5C 85.4986,396.848 85.6653,393.182 85.5,389.5C 95.5393,389.758 105.539,389.424 115.5,388.5 Z"/></g>
<g><path style="opacity:1" fill="#f0985e" d="M 67.5,392.5 C 69.8333,392.5 72.1667,392.5 74.5,392.5C 74.5,395.5 74.5,398.5 74.5,401.5C 73.5489,400.081 73.2155,398.415 73.5,396.5C 66.7644,398.692 59.9311,400.359 53,401.5C 50.6454,418.655 51.4787,435.655 55.5,452.5C 55.0714,456.831 54.7381,461.165 54.5,465.5C 52.8333,465.5 51.1667,465.5 49.5,465.5C 46.8018,451.446 44.8018,437.279 43.5,423C 43.6621,416.027 44.6621,409.194 46.5,402.5C 47.4794,399.375 47.8128,396.042 47.5,392.5C 54.309,393.732 60.9756,393.732 67.5,392.5 Z"/></g>
<g><path style="opacity:1" fill="#4a2f1e" d="M 67.5,392.5 C 60.9756,393.732 54.309,393.732 47.5,392.5C 47.8128,396.042 47.4794,399.375 46.5,402.5C 46.5,398.833 46.5,395.167 46.5,391.5C 53.4707,392.29 60.4707,392.623 67.5,392.5 Z"/></g>
<g><path style="opacity:1" fill="#fdb27a" d="M 115.5,393.5 C 116.08,402.331 115.247,410.998 113,419.5C 108.191,429.786 102.857,439.786 97,449.5C 94.5759,455.005 92.7426,460.672 91.5,466.5C 88.1667,466.5 84.8333,466.5 81.5,466.5C 81.1125,444.254 85.2792,422.921 94,402.5C 94.6853,399.943 96.1853,398.109 98.5,397C 104.251,396.15 109.918,394.983 115.5,393.5 Z"/></g>
<g><path style="opacity:1" fill="#fcb27a" d="M 74.5,401.5 C 76.2424,406.393 77.5758,411.393 78.5,416.5C 78.4298,423.256 77.5965,429.923 76,436.5C 72.9584,447.673 69.4584,458.673 65.5,469.5C 63.9291,468.691 62.2624,468.357 60.5,468.5C 57.6798,468.913 55.6798,467.913 54.5,465.5C 54.7381,461.165 55.0714,456.831 55.5,452.5C 51.4787,435.655 50.6454,418.655 53,401.5C 59.9311,400.359 66.7644,398.692 73.5,396.5C 73.2155,398.415 73.5489,400.081 74.5,401.5 Z"/></g>
<g><path style="opacity:1" fill="#a66e48" d="M 49.5,465.5 C 51.1667,465.5 52.8333,465.5 54.5,465.5C 55.6798,467.913 57.6798,468.913 60.5,468.5C 60.3893,469.117 60.056,469.617 59.5,470C 57.5273,470.495 55.5273,470.662 53.5,470.5C 52.4583,469.209 51.2917,469.209 50,470.5C 49.5065,468.866 49.3398,467.199 49.5,465.5 Z"/></g>
<g><path style="opacity:1" fill="#9c6744" d="M 77.5,466.5 C 78.8333,466.5 80.1667,466.5 81.5,466.5C 84.8333,466.5 88.1667,466.5 91.5,466.5C 91.1961,467.15 90.8627,467.817 90.5,468.5C 86.225,469.576 81.8917,470.243 77.5,470.5C 77.5,469.167 77.5,467.833 77.5,466.5 Z"/></g>
<g><path style="opacity:1" fill="#372e2b" d="M 57.5,489.5 C 58.552,489.649 59.552,489.483 60.5,489C 59.1772,488.184 58.5106,487.017 58.5,485.5C 59.2389,485.631 59.9056,485.464 60.5,485C 59.3318,483.594 59.6652,482.428 61.5,481.5C 58.7709,479.633 59.1043,478.633 62.5,478.5C 62.3398,480.199 62.5065,481.866 63,483.5C 64.7782,477.13 64.9448,474.796 63.5,476.5C 60.2819,476.349 59.9485,475.516 62.5,474C 61.0439,473.577 60.5439,472.744 61,471.5C 63.0811,470.667 65.2478,470.667 67.5,471.5C 67.8957,474.044 67.229,476.211 65.5,478C 65.6891,481.819 66.0224,485.653 66.5,489.5C 65.1779,489.33 64.0113,489.663 63,490.5C 62.6667,489.167 62.3333,487.833 62,486.5C 61.6667,488.5 61.3333,490.5 61,492.5C 59.2714,492.026 58.1047,491.026 57.5,489.5 Z"/></g>
<g><path style="opacity:1" fill="#6b5c4e" d="M 72.5,488.5 C 74.0174,488.511 75.1841,489.177 76,490.5C 76.139,493.445 77.3057,495.779 79.5,497.5C 79.4754,500.179 78.142,501.512 75.5,501.5C 72.6402,500.219 70.3068,498.219 68.5,495.5C 70.0981,493.302 71.4314,490.969 72.5,488.5 Z"/></g>
<g><path style="opacity:1" fill="#352d28" d="M 98.5,484.5 C 102.535,487.4 106.869,489.733 111.5,491.5C 112.562,493.099 112.562,494.766 111.5,496.5C 106.095,498.283 100.928,500.616 96,503.5C 94.1072,502.804 92.2738,501.97 90.5,501C 86.8995,500.648 83.5661,500.481 80.5,500.5C 85.5502,499.979 89.2169,497.479 91.5,493C 90.0563,492.219 88.723,492.386 87.5,493.5C 87.7093,494.086 88.0426,494.586 88.5,495C 85.9917,498.525 83.1583,499.025 80,496.5C 79.6012,496.728 79.4346,497.062 79.5,497.5C 77.3057,495.779 76.139,493.445 76,490.5C 75.1841,489.177 74.0174,488.511 72.5,488.5C 74.0746,486.886 74.7413,484.886 74.5,482.5C 75.552,482.649 76.552,482.483 77.5,482C 75.6556,479.196 74.9889,476.03 75.5,472.5C 79.7978,471.8 84.1311,471.467 88.5,471.5C 88.7564,473.792 88.4231,475.959 87.5,478C 90.6887,478.981 91.022,480.314 88.5,482C 85.5,482.333 82.5,482.667 79.5,483C 83.5408,483.173 87.5408,483.673 91.5,484.5C 93.517,487.742 95.8503,487.742 98.5,484.5 Z"/></g>
<g><path style="opacity:1" fill="#3a302e" d="M 111.5,496.5 C 112.79,495.942 113.623,494.942 114,493.5C 116.802,494.33 119.635,495.163 122.5,496C 119.371,502.322 114.204,505.488 107,505.5C 104.102,505.363 101.269,504.863 98.5,504C 101.979,501.211 105.979,499.878 110.5,500C 111.337,498.989 111.67,497.822 111.5,496.5 Z"/></g>
<g><path style="opacity:1" fill="#3a302d" d="M 67.5,505.5 C 67.7634,508.734 66.2634,510.068 63,509.5C 60.0068,508.871 57.1735,507.704 54.5,506C 49.0281,505.417 43.6947,505.75 38.5,507C 37.1748,503.101 38.5081,500.267 42.5,498.5C 45.3245,498.919 47.4912,497.919 49,495.5C 49.1667,496 49.3333,496.5 49.5,497C 46.6105,498.892 46.9438,499.725 50.5,499.5C 50.5,498.167 50.5,496.833 50.5,495.5C 52.5,495.5 54.5,495.5 56.5,495.5C 56.1437,498.564 56.9771,501.231 59,503.5C 57.9102,500.339 57.4102,497.172 57.5,494C 59.0613,493.812 59.728,494.645 59.5,496.5C 62.3297,496.694 64.9963,497.361 67.5,498.5C 67.5,499.833 67.5,501.167 67.5,502.5C 65.8008,502.34 64.1341,502.506 62.5,503C 64.744,503.05 66.4107,503.883 67.5,505.5 Z"/></g>
<g><path style="opacity:0.757" fill="#f9e800" d="M 132.5,500.5 C 138.276,503.939 142.609,508.605 145.5,514.5C 137.96,515.994 130.626,515.327 123.5,512.5C 128.004,509.658 131.004,505.658 132.5,500.5 Z"/></g>
</svg>
